<svg xmlns="http://www.w3.org/2000/svg" viewBox="0 0 250 250" fill="#8AADAC" class="iconservice">
  <defs/>
  <path d="M198.4 183.9l51.3-12.5-2.5-10.2-45.6 11.2c-2.5-3.7-8.1-10.5-17.3-11.8l-4-23.8 5.3-1.5 11.6 7.5 1.3 18.2 4.5.3c.4 0 .8.1 1.3.1 7.5 0 18-4.6 19.3-18 .6-5.8-1.2-16.6-1.4-17.8l-.3-1.8-21.1-19.7-15.7 1.1c3.9-16 9.6-32.6 13.5-35.5 1.7-.9 3.5-1.7 5.3-2.4 5.7-2.2 12.8-5 16.5-10.5 3.3-4.9 2-17.6.3-27.4l-1.1-5.8-25.8 7.6-13.4-6.3-25 7.4-20.2 53.2L65.6 106c-31.1 4.1-52 5.6-52.2 5.6l-13.2.9 10.2 8.4c1.1.8 23.9 19.2 49.8 15.8.8 5.6 3 10.8 6.5 15.3 3 3.8 7.1 6.7 11.7 8.3l2.4 19.9 21.1 16.6-48.4 11.8 2.5 10.2 56.4-13.8 12.6-3.1 42.5-10.4.1.2 2.1-.6c-4.7 9.5-.9 21.1 8.7 25.9 9.5 4.7 21.1.9 25.9-8.7 4.4-8.6 1.8-18.9-5.9-24.4zm-23-12.8l4.8-.4c3.4-.2 6.8 1 9.3 3.4l-16 4.8-6.5-13.6-6.7-22.7 9.8-2.9 5.3 31.4zm4.4-135.2l13.4 6.3 18.2-5.4c.8 6.4 1 12.2.4 14-2 2.7-7.5 4.9-11.6 6.5-2.7.9-5.3 2.2-7.8 3.7-5.3 3.9-9.9 15.1-13.3 26L151 73.8l2.7-7.1c3.8 6.6 8.7 10 14.5 9.9 2.2 0 4.4-.5 6.3-1.5 8.4-4.4 7.4-12.2 7.4-12.2l-5.4-18.4-10.1 2.9 5.1 17.3c-1.2.9-2.7 1.4-4.2 1.2-1.1-.3-4.8-2-8.1-13.6l4.4-11.6 16.2-4.8zM91 174.4l-2.8-23.3-4.2-.4c-3.5-.7-6.6-2.7-8.8-5.5-4.1-5.1-5.6-13-4.4-23.5l-10.5-1.2c-.2 1.9-.3 3.7-.4 5.5-10.9 1.6-21.6-1.7-29.5-5.5 9.3-.9 22.1-2.3 37.3-4.3l.4-.1 75.4-22.2 3.9-10.2 29 13.5c-1.3 5.2-2.3 9.7-2.9 12.4l-1.4 6.8 25.1-1.7 15.1 14.2c.6 4.2 1.3 10.4 1.1 13.3-.5 4.6-2.7 6.7-4.9 7.7l-1-13.2-20.1-12.9-65.5 19.2c-.1-3.7-.5-7.5-1.2-11.2l-10.4 1.9c1.2 6.3 2.9 25.7-4.5 32.2l-3.6 3.2 12.8 17.4h2.7c4.3-.1 10 .2 11.7.7.6.6 1.1 1.3 1.3 2l-8.3 2.4-7.4 1.8-24-19zm50.2 12.6c-1.3-3.7-3.9-8.4-8.5-9.9-3.2-1.1-8.8-1.2-12.5-1.3l-4.2-5.7c3.2-4.6 4.8-10.4 5.5-16.1l28.7-8.5 6.9 23.5 6 12.6-21.9 5.4zm46 21.3c-4.8 0-8.8-3.9-8.8-8.8 0-4.8 3.9-8.8 8.8-8.8 4.8 0 8.8 3.9 8.8 8.8-.1 4.8-4 8.8-8.8 8.8z"/>
</svg>
