<svg xmlns="http://www.w3.org/2000/svg" viewBox="0 0 250 250" fill="#8AADAC" class="iconservice">
  <defs/>
  <path d="M246.5 136.2H200l10-40.5h-55.1l8.1 40.5h-31.9V65.8H206l-2.6-8c-14.1-43.3-60.6-67.1-103.9-53-25.2 8.2-44.9 27.9-53 53l-2.6 8h74.9v70.4H86l10-40.5H40.9l8.1 40.5H3.5v56.4h41.7l-25.9 51.8 11 5.5 28.6-57.2h132.4l28.6 57.2 11-5.5-25.9-51.8h41.7l-.2-56.4zM194.4 108l-6.9 28.1h-11.9L170 108h24.4zM125 13.9c6.1 3.8 21.4 15.3 24.8 39.6h-49.6c3.4-24.3 18.7-35.9 24.8-39.6zm63.6 39.6h-26.5c-1.4-13.7-6.9-26.7-15.8-37.2 18.7 6 34.1 19.4 42.3 37.2zm-85-37.2c-8.9 10.5-14.4 23.5-15.8 37.2H61.4c8.2-17.8 23.6-31.2 42.2-37.2zm-23.2 91.6l-7 28.1H61.5l-5.6-28.1h24.5zm153.9 72.5H15.7v-31.9h218.5v31.9z"/>
</svg>
