<svg xmlns="http://www.w3.org/2000/svg" viewBox="0 0 250 250" fill="#8AADAC" class="iconservice">
  <defs/>
  <path d="M212.5.8H39c-4.7 0-8.6 3.9-8.6 8.6v231.4c0 4.7 3.9 8.6 8.6 8.6h173.5c4.7 0 8.6-3.9 8.6-8.6V9.4c0-4.8-3.8-8.6-8.6-8.6zm-1.8 58.7H93.2V11.2h117.5v48.3zm-128-48.3v48.3H40.9V11.2h41.8zM40.9 238.9V70h169.8v169H40.9z"/>
  <path d="M115.7 51.7c9.4 0 17.1-7.7 17.1-17.1 0-9.4-7.7-17.1-17.1-17.1-9.4 0-17.1 7.7-17.1 17.1 0 9.4 7.7 17.1 17.1 17.1zm0-23.8c3.7 0 6.6 3 6.6 6.7s-3 6.6-6.7 6.6-6.6-3-6.6-6.6c0-3.7 3-6.7 6.7-6.7zM125.6 93.6c-34.2 0-62 27.7-62 61.9s27.7 62 61.9 62 62-27.7 62-61.9c0-34.3-27.7-62-61.9-62zm0 113.4c-28.4 0-51.5-23-51.5-51.5 0-28.4 23-51.5 51.5-51.5 28.4 0 51.5 23 51.5 51.5S154 207 125.6 207zM205 17.5h-57.9V51H205V17.5zm-10.4 23h-37V27.9h37v12.6zM54 29h17.7v10.5H54z"/>
  <path d="M105.2 152.1c-2.6-2.3-3.4-3.1-3.4-5.2s.8-3 3.4-5.2c1.9-1.7 5-3.5 5.6-6.9.2-1.3-.4-4.2-5.4-4.2-2.9-.2-5.6 1.1-7.4 3.3-2.6 2.7-6 6.4-6 13.1s3.9 10.1 6.7 12.7c2.6 2.3 3.4 3.1 3.4 5.2s-.8 3-3.4 5.2c-2.1 1.5-6.7 3.8-7.6 7.1-.3 1.2 0 4.3 5 4.7 2.1.2 4.2-.4 5.9-1.6.2-.1.4-.3.6-.4.3-.2.6-.5.8-.7.2-.1.3-.3.4-.4.5-.4 1-.9 1.4-1.3 2.8-2.5 6.7-5.9 6.7-12.6s-3.9-10.3-6.7-12.8zM129.8 152.1c-2.6-2.3-3.4-3.1-3.4-5.2s.8-3 3.4-5.2c1.9-1.7 5-3.5 5.6-6.9.2-1.3-.4-4.2-5.4-4.2-2.9-.2-5.6 1.1-7.4 3.3-2.6 2.7-6 6.4-6 13.1s3.9 10.1 6.7 12.6c2.6 2.3 3.4 3.1 3.4 5.2s-.8 3-3.4 5.2c-2.1 1.5-6.7 3.8-7.6 7.1-.4 1.2 0 4.3 5 4.7 2.1.2 4.2-.4 5.9-1.6.2-.1.4-.3.6-.4.3-.2.6-.5.8-.7.2-.1.3-.3.4-.4.5-.4 1-.9 1.4-1.3 2.8-2.5 6.7-5.9 6.7-12.6 0-6.8-3.9-10.2-6.7-12.7zM153.6 152.1c-2.6-2.3-3.4-3.1-3.4-5.2s.8-3 3.4-5.2c1.9-1.7 5-3.5 5.6-6.9.2-1.3-.4-4.2-5.4-4.2-2.9-.2-5.6 1.1-7.4 3.3-2.6 2.7-6.1 6.4-6.1 13.1s3.9 10.1 6.7 12.6c2.6 2.3 3.4 3.1 3.4 5.2s-.8 3-3.4 5.2c-2.1 1.5-6.7 3.8-7.6 7.1-.3 1.2 0 4.3 5 4.7 2.1.2 4.2-.4 5.9-1.6.2-.1.4-.3.6-.4.3-.2.6-.5.9-.7.2-.1.3-.3.4-.4.5-.4.9-.9 1.4-1.3 2.8-2.5 6.7-5.9 6.7-12.6 0-6.8-3.9-10.2-6.7-12.7z"/>
</svg>
