<svg xmlns="http://www.w3.org/2000/svg" viewBox="0 0 250 250" fill="#8AADAC" class="iconservice">
  <defs/>
  <path d="M102.7 59.8l-1.2-11.4C71 51.5 54.7 65.8 46.3 77.2c-9.1 12.5-10.9 24.3-11 24.8l11.4 1.6c.3-1.5 6.4-38.7 56-43.8zM85.3 83.9h22.9v11.5H85.3zM133.7 75.9h16.4v11.5h-16.4zM160.2 53.9h16.4v11.5h-16.4z"/>
  <path d="M249.7 129.6c-.4-6.9-3.3-11.1-5.8-13.4-1.1-1.1-2.4-1.9-3.6-2.6-.3-9.7-3.2-34.6-23-55.6-20.3-21.5-51.9-32.5-94-32.5-42 0-73.6 10.9-93.9 32.5-22.1 23.5-23.1 51.6-23 58.3-2.5 2.3-5.3 6.5-5.7 13.3v1.4c.4 6.9 3.3 11.1 5.8 13.4 1.1 1 2.3 1.9 3.5 2.5v11.4c-1 .5-2 1.1-3 1.8-2.2 1.8-4.8 5.1-5.1 10.9-.4 10.3-.1 19.2 0 20.4 0 1.8.6 11.2 9.4 20.1 10.3 10.4 27.5 15.7 51 15.7h123.5c23.5 0 40.6-5.3 51-15.7 8.8-8.9 9.4-18.3 9.4-20.1.1-1.2.4-10.1 0-20.4-.2-5.8-2.9-9.1-5.1-10.9-.8-.6-1.6-1.2-2.5-1.6v-10.8c1.8-.8 3.7-1.9 5.3-3.4 2.5-2.3 5.4-6.5 5.8-13.4v-.7-.6zm-14.9 53.1c-1.4.9-2.7 1.9-3.9 2.8-3.6 2.8-6.5 5-12.6 5s-9-2.2-12.6-5c-4.1-3.2-9.3-7.1-18.9-7.1-9.6 0-14.8 3.9-18.9 7.1-3.6 2.8-6.5 5-12.6 5s-9-2.2-12.6-5c-4.1-3.2-9.3-7.1-18.9-7.1h-.1c-9.6 0-14.8 3.9-18.9 7.1-3.6 2.8-6.5 5-12.6 5s-9-2.2-12.6-5c-4.1-3.2-9.3-7.1-18.9-7.1s-14.8 3.9-18.9 7.1c-3.6 2.8-6.5 5-12.6 5s-9-2.2-12.6-5c-1.1-.9-2.3-1.8-3.6-2.7 0-3.3 0-7.2.2-11.4.1-1.8.6-2.2.8-2.4.8-.7 2.4-.9 3.7-.9.5 0 .9 0 1.2.1l.5.1h208.8l.5-.1c1-.2 3.7-.1 4.9.8.2.2.8.6.8 2.4.4 4.2.4 8.1.4 11.3zm-213-33H227v7.2H21.5v-7.2h.3zM236.1 136c-2.1 2-5.8 2.3-7 2.2H21.2s-4.4.2-6.9-2.2c-1.3-1.2-2-3.1-2.1-5.7.1-2.5.8-4.4 2.1-5.6 2.1-2 5.8-2.3 7-2.2h207.9c1.2-.1 4.9.2 7 2.2 1.3 1.2 2 3.1 2.1 5.6-.2 2.6-.9 4.4-2.2 5.7zM37.8 65.9C55.8 46.7 84.6 37 123.4 37c38.6 0 67.4 9.7 85.4 28.7 15.4 16.2 19 35.6 19.8 45.2H21.8c-.6 0-2-.1-3.7.2.7-9.5 4.2-28.8 19.7-45.2zm148 149.8H62.3c-33.7 0-44.2-11.7-47.4-18.9 3.5 2.2 8 4 14.6 4 9.6 0 14.8-3.9 18.9-7.1 3.6-2.8 6.5-5 12.6-5s9 2.2 12.6 5c4.1 3.2 9.3 7.1 18.9 7.1 9.6 0 14.8-3.9 18.9-7.1 3.6-2.8 6.5-5 12.6-5s9 2.2 12.6 5c4.1 3.2 9.3 7.1 18.9 7.1h.1c9.6 0 14.8-3.9 18.9-7.1 3.6-2.8 6.5-5 12.6-5s9 2.2 12.6 5c4.1 3.2 9.3 7.1 18.9 7.1 6.8 0 11.3-2 14.9-4.2-.9 2-2.3 4.4-4.7 6.8-8.2 8.1-23 12.3-43 12.3z"/>
</svg>
