<svg xmlns="http://www.w3.org/2000/svg" viewBox="0 0 250 250" fill="#8AADAC" class="iconservice">
  <defs/>
  <path d="M200.5 103.7c-5.4 0-10.8.9-16 2.7-7.8-15.4-15.5-31.1-19.6-40.8l18-6.9-3.8-9.8-27.8 10.7 1.8 4.8c1.9 5.1 5.6 13.3 10.2 22.8l-57.9.1-3.1-14.5h12V62.3H70.6v10.5h21l3.5 16.5-19.3 22.3c-22.6-14.6-52.7-8-67.2 14.6s-7.9 52.7 14.7 67.1c22.6 14.5 52.7 7.9 67.1-14.7 3.7-5.8 6.1-12.3 7.2-19.1h21l50.9-59.8c1.8 3.7 3.7 7.4 5.6 11.1-22.9 14.1-30 44-15.9 66.9s44 30 66.9 15.9c22.9-14.1 30-44 15.9-66.9-8.9-14.2-24.6-23-41.5-23zm-42.9-6l-40.1 46.9-9.9-46.8 50-.1zm-49.8 51.4h-9.7c-.8-11.7-5.8-22.7-14.2-31l13.8-16 10.1 47zM77.1 126c6 6.3 9.7 14.4 10.5 23.1H57.1l20-23.1zm-27.6 64.6c-21.1 0-38.2-17-38.2-38.1s17-38.2 38.1-38.2c6.8 0 13.5 1.8 19.4 5.3l-25.7 29.7h-.2v10.5l44-.1c-3.4 17.9-19.1 30.8-37.4 30.9zm151-.1c-21.1 0-38.1-17-38.1-38.1 0-13 6.6-25.1 17.5-32.1 9.8 19.1 18.7 35.7 19.4 37.1l9.2-4.9c-.2-.4-9.1-17.2-19.1-36.7 20.2-6.1 41.4 5.3 47.5 25.5 6.1 20.2-5.3 41.4-25.5 47.5-3.5 1.1-7.2 1.7-10.9 1.7z"/>
</svg>
