<svg xmlns="http://www.w3.org/2000/svg" viewBox="0 0 250 250" fill="#8AADAC" class="iconservice">
  <defs/>
  <path d="M227.5 181.8l-38.2-34.3v-34.9l-17-27.5-55.1-18.2-57.7-27.3-9.4-15.8-21.4 2.3-10-9.4L24.4 5 14.1 0 4.7 19.2l20 18.8L44 36l7.4 12.5 1.3.6c-5 1.8-8.2 6.1-8.6 6.7L43 57.3l.8 42.7c-2.7-8.9-11-15.4-20.8-15.4-12.1 0-21.9 9.8-21.9 21.9 0 12.1 9.8 21.9 21.9 21.9 3 0 5.9-.6 8.6-1.7-.9 3.3-1.3 6.4-1.3 8.9v2l29.1 35.2-16.1 13.8 24.5 29.6 22.7-17.4-4.4-6.8c10 3.8 23.9 7.5 43.4 10l37 30.9 1.6.2c.3.1 1.4.2 3 .2 3.4 0 9-.7 13.3-4.8 4.3-4 6-9.9 5.3-17.5l-.2-2.2-42.5-38.9-22.8-4.7 11.5-15.6 39.2.4 1.7-1.6c.2-.2.7-.7 1.3-1.4v5.6l39.5 35.5 17.2 62 11.1-3.1-18.2-65.2zM23 116.9c-5.7 0-10.4-4.7-10.4-10.4S17.3 96.1 23 96.1s10.4 4.7 10.4 10.4-4.7 10.4-10.4 10.4zm69.1-49.2L71.6 93.8l-.8-36.1 21.3 10zM57 59.8c.5 0 1.4.5 2.5 1.7l.8 40.1c-1.7.4-3.4.8-4.9 1.3l-.8-41.8c.8-.7 1.7-1.3 2.4-1.3zm12.6 140.5l-10.3-12.4 6.8-5.8 9 14-5.5 4.2zm100.3-61.8l-40-.4-25.6 34.8 37.3 7.7 36.8 33.6c0 2.2-.4 4.6-1.8 5.9-1.5 1.4-3.9 1.7-5.4 1.7l-37-30.8-1.7-.2c-47.9-5.8-59.2-18.9-60.2-20.2l-.1-.2-.2-.4-3.9-4.8-26.2-31.8c.6-5.3 4.3-20.3 27.6-21.5l2.6-.1 29.3-37.4 1.5-1.7 5.2 2.5L87.3 112l-19.2 13.2 23.2 32.3 32.8-32.3 45.5 6c1.6 1.5 1.7 2.6 1.7 3.1.2 1.4-.6 3-1.4 4.2zm7.9-15.4c-.7-.7-1.4-1.3-2.3-2l-1.2-.9-54.2-7.2-27.3 26.9-8.5-11.9 11.7-8 22.7-40.5 46 15.2 13.1 21.1v7.3z"/>
</svg>
