<svg xmlns="http://www.w3.org/2000/svg" viewBox="0 0 250 250" fill="#8AADAC" class="iconservice">
  <defs/>
  <path d="M221 110.4h25.2V97.7h-24l1.7-18.8-20.6-13.1c5.3-5.3 8.6-12.7 8.6-20.8 0-16.3-13.2-29.5-29.5-29.5S152.8 28.7 152.8 45c0 8.1 3.3 15.5 8.6 20.8l-22.6 14.3 2.2 17.6h-34.5l2.2-17.6-22.6-14.3c5.3-5.3 8.6-12.7 8.6-20.8 0-16.3-13.2-29.5-29.5-29.5S35.7 28.7 35.7 45c0 8.1 3.3 15.5 8.6 20.8L23.7 78.9l1.7 18.8h-24v12.7h25.2l3.1 34.7h16.6V200h38.1v-55h16.4l4.3-34.7h37.6L147 145h16.4v54.9h38.1V145h16.6l2.9-34.6zM65.2 28.1C74.5 28.1 82 35.7 82 45s-7.6 16.9-16.9 16.9S48.3 54.3 48.3 45s7.6-16.9 16.9-16.9zm24.2 104.3H71.6v54.9H58.8v-54.9H41.1l-4.1-47 17.3-11h21.8l19 12.1-5.7 45.9zm92.9-104.3c9.3 0 16.9 7.6 16.9 16.9s-7.6 16.9-16.9 16.9c-9.3 0-16.9-7.6-16.9-16.9s7.6-16.9 16.9-16.9zm24 104.3h-17.6v54.9h-12.8v-54.9H158l-5.7-45.8 19-12.1h21.8l17.3 11-4.1 46.9zM242.9 210.3c-8.8-8.8-23.1-8.8-31.9 0-8.8 8.8-8.8 23.1 0 31.9 4.4 4.4 10.2 6.6 16 6.6 5.8 0 11.6-2.2 16-6.6 8.7-8.7 8.7-23.1-.1-31.9zm-8.9 23c-3.9 3.9-10.2 3.9-14 0-3.9-3.9-3.9-10.2 0-14 1.9-1.9 4.5-2.9 7-2.9s5.1 1 7 2.9c3.8 3.9 3.8 10.2 0 14z"/>
</svg>
