<svg xmlns="http://www.w3.org/2000/svg" id="Livello_1" x="0" y="0" version="1.1" viewBox="0 0 250 250" xml:space="preserve" fill="#8AADAC" class="iconservice">
  <defs/>
  <path d="M106 71.7H25.7v50H106v-50zm-10.4 39.6H36V82.1h59.6v29.2z" class="st0"/>
  <path d="M249.4 37.8H1v138.4h21c1.5 11.5 11.4 20.4 23.4 20.4 11.9 0 21.8-8.9 23.4-20.4h114.8c1.5 11.5 11.4 20.4 23.4 20.4 11.9 0 21.8-8.9 23.4-20.4H244.3l5.1-5.2v-56.5l-25.7.1-19.5-32.9h45.1V37.8zm-204 148.5c-7.3 0-13.2-5.9-13.2-13.2s5.9-13.2 13.2-13.2c7.3 0 13.2 5.9 13.2 13.2s-5.9 13.2-13.2 13.2zm119.1-20.5h-29.1V81.7h29.1v84.1zm0-94.4H125v94.5H67.9c-3.1-9.5-12-16.4-22.4-16.4-10.5 0-19.4 6.9-22.4 16.4H11.4V48.2h153.1v23.2zM207 186.3c-7.3 0-13.2-5.9-13.2-13.2s5.9-13.2 13.2-13.2c7.3 0 13.2 5.9 13.2 13.2s-5.9 13.2-13.2 13.2zm32-60.4v39.9h-9.6c-3.1-9.5-12-16.4-22.4-16.4-10.5 0-19.4 6.9-22.4 16.4h-9.7v-39.9H239zm-26.8-10.4h-37.4V81.7h17.4l20 33.8zM239 71.4h-64.2V48.2H239v23.2z" class="st0"/>
  <path d="M136.4 207.6l-8 6.8v-25.2h-10.8v25.2l-8-6.8-7 8.3 15 12.7 5.4 4.6 5.4-4.6 15-12.7-7-8.3z" class="st0"/>
</svg>
