<svg xmlns="http://www.w3.org/2000/svg" viewBox="0 0 250 250" fill="#8AADAC" class="iconservice">
  <defs/>
  <path d="M187.5 160.8c-9.1-7.4-15.1-16.7-20.9-25.7-4.4-6.8-8.6-13.3-13.9-18.4-10.4-10.1-22.8-10.7-28-10.5-4.2-.2-17.2.2-28 10.5-5.2 5.1-9.5 11.5-13.9 18.4C77 144 71 153.3 61.9 160.8c-17.6 14.5-23.9 36.6-16 56.5 6.6 16.5 25.8 32 45.5 32 2.7 0 5.5-.3 8.2-.9 4.8-1.1 8.5-2 11.5-2.7 7.1-1.7 9.6-2.3 13.5-2.5 4.1.1 6.7.8 15.1 2.8 2.7.6 5.9 1.4 9.9 2.4 22.3 5.1 46.2-12.3 53.6-31 8.1-19.9 1.9-42.1-15.7-56.6zm6.5 52.8c-6 15-25.3 28.8-42.1 25-4-.9-7.2-1.7-9.8-2.3-8.7-2.1-12-2.9-17.3-3.1h-.4c-5 .2-8.1.9-15.7 2.7-2.9.7-6.6 1.6-11.4 2.7-16.8 3.9-36.1-9.9-42.1-25-6.3-15.7-1.1-33.4 13-45.1 10.3-8.4 17-18.8 22.9-27.9 4.1-6.4 8-12.4 12.4-16.6 7.2-6.9 15.7-7.8 19.5-7.8h1.8c3.7-.2 13 .2 20.8 7.7 4.4 4.3 8.3 10.3 12.4 16.6 5.9 9.2 12.7 19.6 23 28 14.3 11.7 19.4 29.4 13 45.1zM55 149.4c4.4-8.9 4.2-22.9-.5-36.5-7.4-21.6-22.4-34.7-35-30.5-4 1.3-7.4 4.9-10.2 10.6-5.4 10.9-8.1 29.8-3 44.7 5.6 16.2 18.8 22.1 30 22.1 3.3 0 6.4-.5 9.1-1.4 4.1-1.4 7.4-4.5 9.6-9zm-12.8-.5c-7.4 2.5-21.2.8-26.5-14.5-4-11.7-1.9-28 2.5-37 1.8-3.6 3.5-5.2 4.4-5.5.5-.2 1.1-.3 1.7-.3 6.1 0 15.5 9.2 20.7 24.5 3.8 11 4.2 22.3 1 28.8-1 2.1-2.3 3.5-3.8 4zM88.4 101.6c18.3 0 32.6-19.9 32.6-45.3 0-8.4-1.1-37-14.8-49.7C101.5 2.3 95.8.3 89.5.8 79.2 1.6 70 6.6 63.1 15.1c-10.8 13.3-14.9 34-13.3 46.7 3.6 26.1 22.1 39.8 38.6 39.8zM70.9 21.4c5.2-6.5 11.8-10 19.4-10.7h1.1c3 0 5.6 1.1 8 3.2 8.6 8 11.6 27.8 11.6 42.4 0 19.1-10.3 35.3-22.6 35.3-12.1 0-25.9-10.7-28.6-31.1-1.2-9.1 1.5-27.2 11.1-39.1zM240.3 93c-2.8-5.7-6.2-9.2-10.2-10.6-12.6-4.1-27.6 9-35 30.5-4.7 13.6-4.8 27.6-.5 36.5 2.2 4.5 5.5 7.6 9.6 9 2.7.9 5.8 1.4 9.1 1.4 11.2 0 24.5-5.9 30-22.1 5.2-15 2.4-33.9-3-44.7zm-6.4 41.4c-5.3 15.3-19 17-26.5 14.5-1.5-.5-2.8-1.8-3.8-3.9-3.2-6.5-2.8-17.8 1-28.8 5.2-15.3 14.6-24.5 20.7-24.5.6 0 1.1.1 1.7.3 1 .3 2.7 2 4.4 5.5 4.4 8.8 6.5 25.1 2.5 36.9zM164.3 101.6c16.5 0 35.1-13.7 38.7-39.9 1.7-12.5-2.3-33-13.1-46.4C183 6.7 173.8 1.6 163.4.7c-6.3-.5-12.1 1.6-16.8 5.9-13.8 12.8-14.9 41.2-14.9 49.6 0 25.5 14.3 45.4 32.6 45.4zM153.4 14c2.4-2.2 5.1-3.3 8.2-3.3h1c7.7.6 14.2 4.3 19.5 10.8 9.6 11.9 12.2 29.9 11 38.8-2.8 20.5-16.6 31.3-28.7 31.3-12.3 0-22.6-16.2-22.6-35.3-.1-14.5 3-34.3 11.6-42.3z"/>
</svg>
