<svg xmlns="http://www.w3.org/2000/svg" viewBox="0 0 250 250" fill="#8AADAC" class="iconservice">
  <defs/>
  <path d="M206.9 18c-6.3 4.9-8.9 15.4-9.9 23.7H1.1l42.4 125.9 143.4-.8-2.1 25.6H59.5v.3c-12.2 1.8-20.6 13.2-18.8 25.5 1.8 12.2 13.2 20.6 25.5 18.8 12.2-1.8 20.6-13.2 18.8-25.5-.3-2.3-1.1-4.6-2.1-6.7h84c-5.5 11-1 24.4 10.1 29.9 11 5.5 24.4 1 29.9-10.1 5.4-10.9 1.1-24.2-9.8-29.8l12.6-153.3h-.1c.9-6.2 2.6-12.1 4.9-13.9 4.8-3.7 22.7-3.5 33.4-2.2l1.5-12.4c-5.2-.4-32-3.2-42.5 5zm-10.8 36.2l-1.9 23.4H26.4l-7.8-23.3 177.5-.1zm-5 60.2H38.7l-8.1-24.3h162.6l-2.1 24.3zM52.4 155.1l-9.5-28.2h147.2l-2.3 27.5-135.4.7zm10.5 69.6c-5.4 0-9.8-4.4-9.8-9.9 0-5.4 4.4-9.8 9.9-9.8 5.4 0 9.8 4.4 9.8 9.8 0 5.5-4.4 9.9-9.9 9.9zm123.9 0c-5.4 0-9.8-4.4-9.8-9.8s4.4-9.8 9.8-9.8 9.8 4.4 9.8 9.8c.1 5.4-4.3 9.8-9.8 9.8z"/>
</svg>
