<svg xmlns="http://www.w3.org/2000/svg" id="Livello_1" x="0" y="0" version="1.1" viewBox="0 0 250 250" xml:space="preserve" fill="#8AADAC" class="iconservice">
  <defs/>
  <path d="M249.3 16.6H.9v190.9h17.5v25.7h47.2v-25.8h119v25.7h47.2v-25.7h17.5V16.6zM54.3 222H29.6v-14.1h24.7V222zm166.2 0h-24.6v-14.1h24.7l-.1 14.1zm17.5-25.8H12.1V27.9H238v168.3z" class="st0"/>
  <path d="M166.5 41.4h60.3v11.2h-60.3zM166.5 67.2h60.3v11.2h-60.3zM166.5 93.5h60.3v11.2h-60.3zM166.5 119.4h60.3v11.2h-60.3zM230.3 141.2h-67.4v39h67.4v-39zM219.1 169h-44.9v-16.5h44.9V169zM29.2 141.3c19.1 30.7 59.3 40.2 90.1 21.2 7.2-4.4 13.4-10.2 18.4-17l1-1-.2-.2c1.2-1.7 2.2-3.4 3.3-5.2l.2.1c.2-.4.3-.8.4-1.3 17.2-31.8 5.3-71.5-26.5-88.7s-71.5-5.3-88.7 26.5c-11 20.5-10.4 45.3 1.7 65.1.2.2.3.3.3.5zm7.9-28.4c5.1-6.6 19.6-6.1 26.2-5.2.3 7.6 4.6 14.6 11.4 18.2-1.5 7-5.2 18.5-12.2 21.2-6.5 2.6-15.2-3.3-21.5-8.8-.7-.9-1.3-1.9-1.9-2.8-3.4-7.6-6.1-17.2-2-22.6zm95-1.5c4.4 4.9 2.7 14.2.1 21.8-.9 1.7-2 3.3-3.1 4.9-5.8 5.6-13.5 11.1-19.8 9.2-7.6-2.2-12.4-14.8-14.1-21.5 6.6-3.6 10.8-10.4 11.2-17.9 6.9-1.3 20.3-2.5 25.7 3.5zm-35.7-4.6c0 6.3-5.1 11.5-11.5 11.5s-11.5-5.1-11.5-11.5 5.1-11.5 11.5-11.5h.1c6.3 0 11.4 5.2 11.4 11.5zm-30.2 50.9l.3-.1c11.4-4.4 16.5-18 18.6-26.7 2.3 8 7.9 21.9 19.3 26.6-12.3 4.6-25.9 4.7-38.2.2zm72.7-55.4c-10.2-9.2-27.6-6.9-34.7-5.4-.2-.3-.4-.7-.6-1 5.2-5.4 16.3-19 13.8-32.5 12.4 9.3 20.3 23.5 21.5 38.9zM86.4 52.6c8.1 1.8 17.9 5.4 19.7 12.1 2.1 7.6-5.8 18.1-10.5 23.3-6.6-3.8-14.8-3.8-21.4 0-4.8-5.1-12.7-15.6-10.6-23.3 1.9-6.7 11.6-10.3 19.7-12.1h3.1zm-34 10.8c-2.5 13.5 8.7 27.1 13.8 32.5-.2.3-.3.5-.4.8-5.3-.8-24.2-3-34.9 6.6 1-15.8 8.9-30.4 21.5-39.9z" class="st0"/>
</svg>
