<svg viewBox="0 0 48 48" xml:space="preserve" xmlns="http://www.w3.org/2000/svg"><path d="M25 30a.997.997 0 0 1-.707-.293l-16-16A1 1 0 0 1 9 12h32a.999.999 0 0 1 .707 1.707l-16 16A.997.997 0 0 1 25 30zM11.414 14 25 27.586 38.586 14H11.414z" fill="#8aaead" class="fill-000000"></path><path d="M25 48a1 1 0 0 1-1-1V29a1 1 0 1 1 2 0v18a1 1 0 0 1-1 1z" fill="#8aaead" class="fill-000000"></path><path d="M33 48H17a1 1 0 1 1 0-2h16a1 1 0 1 1 0 2zM14.293 13.707 9.051 8.465A4.97 4.97 0 0 0 5.515 7H0V5h5.515c1.87 0 3.628.729 4.95 2.051l5.242 5.242-1.414 1.414zM41 18a6.997 6.997 0 0 1-3.648-1.023l1.043-1.707A5.006 5.006 0 0 0 46 11c0-2.757-2.243-5-5-5a5.006 5.006 0 0 0-4.718 6.661l-1.885.666A6.964 6.964 0 0 1 34 11c0-3.859 3.141-7 7-7s7 3.141 7 7-3.141 7-7 7z" fill="#8aaead" class="fill-000000"></path></svg>