<svg xmlns="http://www.w3.org/2000/svg" id="Livello_1" x="0" y="0" version="1.1" viewBox="0 0 250 250" xml:space="preserve" fill="#8AADAC" class="iconservice">
  <defs/>
  <path d="M66.3 180.5c0 5.1 4.2 9.3 9.3 9.3 5.1 0 9.3-4.2 9.3-9.3 0-5.1-9.3-17.5-9.3-17.5s-9.3 12.4-9.3 17.5zM114.7 180.5c0 5.1 4.2 9.3 9.3 9.3 5.1 0 9.3-4.2 9.3-9.3 0-5.1-9.3-17.5-9.3-17.5s-9.3 12.4-9.3 17.5zM18.4 180.5c0 5.1 4.2 9.3 9.3 9.3s9.3-4.2 9.3-9.3c0-5.1-9.3-17.5-9.3-17.5s-9.3 12.4-9.3 17.5zM44.4 224.9c0 5.1 4.2 9.3 9.3 9.3 5.1 0 9.3-4.2 9.3-9.3s-9.3-17.5-9.3-17.5-9.3 12.4-9.3 17.5zM87.6 224.9c0 5.1 4.2 9.3 9.3 9.3 5.1 0 9.3-4.2 9.3-9.3s-9.3-17.5-9.3-17.5-9.3 12.4-9.3 17.5z" class="st0"/>
  <path d="M68.5 1.2V55H38.8v25.4c-6.8 2.3-14.1 6.1-20.4 12-10.9 10.3-16.5 24.8-16.5 43.1v7.1h147.3v-7.1c0-18.3-5.5-32.8-16.5-43.1-6.3-5.9-13.5-9.7-20.4-12V55H82.7V15.4H232v234.2h14.3V1.2H68.5zm66.1 127.1h-118c1.2-10.8 5-19.3 11.6-25.5 13.6-13 34.9-12 35.1-12H88c.2 0 21.4-.9 35.1 12 6.5 6.2 10.4 14.8 11.5 25.5zM98.2 76.5H53v-7.3h45.1v7.3z" class="st0"/>
</svg>
