<svg xmlns="http://www.w3.org/2000/svg" viewBox="0 0 250 250" fill="#8AADAC" class="iconservice">
  <defs/>
  <path d="M249.2 120h-34.7l21.2-17.9-6.7-7.9-30.5 25.9h-40.2l-7.8-12.9 36.6-36.6 41-4.8-1.2-10.3-36.4 4.2 3-36.1-10.5-.9-3.3 40.4L145 97.9l-2.4-4-12.4.2V52.8l26-32.8-8.1-6.4-17.8 22.6v-35h-10.4v34.7L102 14.7l-7.9 6.7L120 51.9v42.5l-13.1.2-1.4 2.6-34-33.9-4.8-41-10.3 1.2L60.7 60l-36.1-3-.8 10.4 40.4 3.3 35.9 35.9-7.6 13.7H52.8l-32.9-26-6.4 8.1 22.6 17.9h-35v10.4h34.7l-21.2 17.9 6.7 7.9 30.5-25.9H92l7.8 12.9-35.5 35.6-41 4.8 1.2 10.3 36.4-4.3-3 36.1 10.4.8 3.3-40.4 33.6-33.6 2.5 4.1 12.4-.2V198L94 230.8l8.1 6.4 17.8-22.6v35h10.4v-34.7l17.9 21.2 7.9-6.7-25.9-30.5v-42.5l13.1-.2 2.2-4 34.1 34.1 4.8 41 10.3-1.2-4.3-36.4 36.1 3 .8-10.4-40.4-3.3-35.9-36.4 6.8-12.2h39.7l32.9 26 6.4-8.1-22.6-17.9h35V120zm-134.5 24.1l-11.1-18.4 10.4-18.8 21.5-.4 11.1 18.4-10.4 18.8-21.5.4z"/>
</svg>
