<svg xmlns="http://www.w3.org/2000/svg" viewBox="0 0 32 32"><title>Gym</title><g id="Gym"><path d="M28,11H27V10a3,3,0,0,0-3-3H21a2,2,0,0,0-2,2v4H13V9a2,2,0,0,0-2-2H8a3,3,0,0,0-3,3v1H4a3,3,0,0,0-3,3v4a3,3,0,0,0,3,3H5v1a3,3,0,0,0,3,3h3a2,2,0,0,0,2-2V19h6v4a2,2,0,0,0,2,2h3a3,3,0,0,0,3-3V21h1a3,3,0,0,0,3-3V14A3,3,0,0,0,28,11ZM4,19a1,1,0,0,1-1-1V14a1,1,0,0,1,1-1H5v6Zm4,4a1,1,0,0,1-1-1V10A1,1,0,0,1,8,9h3V23Zm5-6V15h6v2Zm12,5a1,1,0,0,1-1,1H21V9h3a1,1,0,0,1,1,1Zm4-4a1,1,0,0,1-1,1H27V13h1a1,1,0,0,1,1,1Z" id="id_101" style="fill: rgb(151, 178, 184);"></path></g></svg>