<svg xmlns="http://www.w3.org/2000/svg" id="Livello_1" x="0" y="0" version="1.1" viewBox="0 0 250 250" xml:space="preserve" fill="#8AADAC" class="iconservice">
  <defs/>
  <path d="M204.8 34.9h-42.4l-23 33.5H19.5v181h155.7v-181h-23.7l16.2-23.5H196L220.6 249l9.9-1.2-25.7-212.9zM89.2 78.4h17v161h-17v-161zm-10.9 161H61v-161h17.3v161zm38.8-161h17.3v161h-17.3v-161zm-87.6 0h20.6v161H29.5v-161zm135.7 161h-20v-161h20v161zM73.9 53c2.1.2 4.3-.4 6.1-1.6.2-.1.4-.3.6-.4.3-.2.6-.5.9-.7.2-.1.3-.3.4-.4.5-.5 1-1 1.4-1.3 2.9-2.6 6.9-6.1 6.9-12.9s-4-10.4-6.9-12.9c-2.6-2.3-3.4-3.2-3.4-5.3s.8-3 3.4-5.3c1.9-1.7 5.1-3.6 5.7-7.1.3-1.3-.4-4.4-5.5-4.4-2.9-.2-5.8 1.1-7.6 3.4-2.7 2.8-6.2 6.6-6.2 13.4s4 10.4 6.9 12.9c2.6 2.3 3.4 3.2 3.4 5.3s-.8 3-3.4 5.3c-2.1 1.5-6.8 3.9-7.8 7.3-.4 1.2 0 4.3 5.1 4.7z" class="st0"/>
  <path d="M103.6 53c2.1.2 4.3-.4 6.1-1.6.2-.1.4-.3.6-.4.3-.2.6-.5.9-.7.2-.1.3-.3.4-.4.5-.5 1-1 1.4-1.3 2.9-2.6 6.9-6.1 6.9-12.9S116 25.2 113 22.6c-2.6-2.3-3.4-3.2-3.4-5.3s.8-3 3.4-5.3c1.9-1.7 5.1-3.6 5.7-7.1.3-1.3-.4-4.3-5.5-4.3-2.9-.2-5.8 1.1-7.6 3.4-2.7 2.8-6.2 6.6-6.2 13.4s4 10.4 6.9 12.9c2.6 2.3 3.4 3.2 3.4 5.4s-.8 3-3.4 5.3c-2.1 1.5-6.8 3.9-7.8 7.3-.3 1.2.1 4.3 5.1 4.7z" class="st0"/>
</svg>
