<svg xmlns="http://www.w3.org/2000/svg" viewBox="0 0 250 250" fill="#8AADAC" class="iconservice">
  <defs/>
  <path d="M180.4 121c-1.4-4.3-2.6-8-3.6-10.8C171.7 95 150 94.3 141.9 94H140.7c19.4-8.7 27.9-31.4 19.3-50.8-8.7-19.4-31.4-27.9-50.8-19.3S81.4 55.5 90 74.9c3.8 8.5 10.6 15.3 19.1 19.2-3.2 0-6.7 0-9.9.1-7.9.2-21 .7-26.1 16.2-.9 2.8-2.2 6.5-3.5 10.7-42.2 10.7-68.1 32.6-68.1 58.2 0 36.3 54.3 64.7 123.6 64.7s123.6-28.5 123.6-64.8c-.1-25.1-26.3-47.4-68.3-58.2zM98.8 59.1C98.8 44.6 110.5 33 125 33s26.1 11.7 26.1 26.1-11.7 26.1-26.1 26.1-26.2-11.6-26.2-26.1zm-19.7 72v-.2c2.2-6.8 4.2-12.7 5.5-16.8 2-6.1 4.9-7.6 15-7.9 5.3-.2 11.4-.1 15.8 0h21.9c.8 0 .8 0 3.8.1h.8c17.7.5 22.6 4.6 23.7 7.8 4.9 14.7 17.2 53 21.6 67-17.9 5.8-39.1 9.2-62.1 9.2-21 .1-42-3.1-62.1-9.4 3.2-10 10.5-32.5 16.1-49.8zM125 231.6c-60.5 0-111.4-24-111.4-52.6 0-17.7 20.2-34.6 51.5-44.3-7.1 21.8-15.3 47.5-15.4 47.9l-2 6.1c21 8.7 48 13.8 77.3 13.8 30.1 0 56.4-4.9 77.6-14l-4.1-11.6c-2.8-8.9-8.4-26.3-13.4-41.9 31.5 9.8 51.4 26.6 51.4 44.1-.1 28.3-51.2 52.5-111.5 52.5z"/>
  <path d="M20.1 120.2c9.8 0 17.9-8 17.9-17.9s-8-17.9-17.9-17.9-17.9 8-17.9 17.9 8 17.9 17.9 17.9zm0-25.7c4.3 0 7.9 3.5 7.9 7.9 0 4.3-3.5 7.9-7.9 7.9s-7.9-3.5-7.9-7.9 3.5-7.9 7.9-7.9zM50.9 73.3C58.7 73.3 65 67 65 59.2s-6.3-14.1-14.1-14.1-14.1 6.3-14.1 14.1 6.3 14.1 14.1 14.1zm0-18.1c2.3 0 4.1 1.8 4.1 4.1s-1.8 4.1-4.1 4.1-4.1-1.8-4.1-4.1 1.8-4.1 4.1-4.1zM247.2 102.4c0-9.8-8-17.9-17.9-17.9s-17.9 8-17.9 17.9 8 17.9 17.9 17.9 17.9-8.1 17.9-17.9zm-10 0c0 4.3-3.5 7.9-7.9 7.9s-7.9-3.5-7.9-7.9c0-4.3 3.5-7.9 7.9-7.9s7.9 3.5 7.9 7.9zM212.6 59.3c0-7.8-6.3-14.1-14.1-14.1s-14.1 6.3-14.1 14.1 6.3 14.1 14.1 14.1c7.8-.1 14.1-6.4 14.1-14.1zm-10 0c0 2.3-1.8 4.1-4.1 4.1s-4.1-1.8-4.1-4.1 1.8-4.1 4.1-4.1 4.1 1.8 4.1 4.1z"/>
</svg>
