<!DOCTYPE svg PUBLIC "-//W3C//DTD SVG 1.1//EN" "http://www.w3.org/Graphics/SVG/1.1/DTD/svg11.dtd">
<!-- Uploaded to: SVG Repo, www.svgrepo.com, Transformed by: SVG Repo Mixer Tools -->
<svg fill="#949494" height="800px" width="800px" version="1.1" id="Layer_1" xmlns="http://www.w3.org/2000/svg" xmlns:xlink="http://www.w3.org/1999/xlink" viewBox="0 0 512.001 512.001" xml:space="preserve" stroke="#949494">
<g id="SVGRepo_bgCarrier" stroke-width="0"/>
<g id="SVGRepo_tracerCarrier" stroke-linecap="round" stroke-linejoin="round"/>
<g id="SVGRepo_iconCarrier"> <g> <g> <path d="M487.622,7.637c-13.416-7.661-29.015-9.639-43.92-5.57c-14.905,4.07-27.333,13.452-34.994,26.868l-68.362,119.473H187.78 l158.931-46.157c9.387-2.741,14.775-12.448,12.034-21.837c-2.741-9.387-12.572-14.714-21.962-11.971l-93.269,27.266 c-0.111-0.619-0.251-1.222-0.432-1.839c-2.741-9.387-12.572-14.766-21.962-12.027l-89.52,26.143 c-9.387,2.741-14.775,12.576-12.034,21.963c0.181,0.617,0.403,1.212,0.641,1.794L28.198,158.61 c-9.387,2.741-14.775,12.573-12.034,21.962c2.258,7.731,9.322,12.748,16.99,12.748c1.643,0,3.315-0.23,4.971-0.714l41.141-12.013 l-0.896,24.828c-28.948,1.307-52.097,25.26-52.097,54.525c0,27.929,21.089,51.013,48.177,54.199l-5.087,141.019 c-0.538,14.926,4.875,29.241,15.245,39.992c10.369,10.75,24.306,16.846,39.242,16.846H375.35c14.936,0,28.872-6.096,39.241-16.846 c10.369-10.75,15.783-24.978,15.245-39.903l-5.087-141.063c27.088-3.185,48.177-26.291,48.177-54.22 c0-29.264-23.151-53.228-52.097-54.535l-1.012-28.319c-0.575-15.953-13.53-28.705-29.493-28.705h-2.314h-6.882l58.335-101.912 c2.971-5.202,7.79-8.812,13.57-10.391c5.166-1.411,10.538-0.872,15.337,1.361c0.571,0.266,1.139,0.575,1.693,0.891 c8.49,4.848,19.307,1.912,24.158-6.581C499.067,23.286,496.113,12.487,487.622,7.637z M81.289,279.118 c-10.624,0-19.174-8.6-19.174-19.172c0-10.572,8.549-19.174,19.174-19.174V279.118z M418.91,240.773 c9.443,0,19.172,8.602,19.172,19.174c0,10.572-9.728,19.172-19.172,19.172V240.773z M384.63,183.823l9.815,272.454 c0.189,5.231-1.708,10.523-5.342,14.291c-3.635,3.767-8.517,6.017-13.752,6.017H123.849c-5.234,0-10.118-2.25-13.753-6.017 c-3.634-3.767-5.531-9.06-5.342-14.291l9.815-272.454H384.63z"/> </g> </g> </g>
</svg>