<svg xmlns="http://www.w3.org/2000/svg" id="Livello_1" x="0" y="0" version="1.1" viewBox="0 0 250 250" xml:space="preserve" fill="#8AADAC" class="iconservice">
  <defs/>
  <path d="M190.9 108.4c-5.3 0-10.4.9-15.2 2.6-7.4-14.7-14.8-29.6-18.8-38.8l17.1-6.6-3.6-9.3L144 66.5l1.7 4.6c1.8 4.8 5.4 12.6 9.7 21.7l-55.1.1-2.9-13.8H109v-10H67.3v10h20l3.3 15.7L72.2 116c-7.2-4.6-15.8-7.3-25-7.3-25.5-.2-46.2 20.5-46.2 46S21.7 201 47.3 201c23.2 0 42.4-17.2 45.7-39.4h19.9v-.1l48.5-56.8c1.7 3.5 3.5 7 5.3 10.6-13.2 8.2-22.1 22.8-22.1 39.4 0 25.5 20.8 46.3 46.3 46.3 25.5 0 46.3-20.8 46.3-46.3 0-25.6-20.7-46.3-46.3-46.3zm-40.9-5.7l-38.1 44.6-9.4-44.6H150zm-47.4 48.9h-9.2c-.8-11.5-5.7-21.8-13.4-29.5l13.2-15.2 9.4 44.7zm-29.2-22c5.6 5.8 9.2 13.5 10 22h-29l19-22zM47.3 191c-20 0-36.3-16.3-36.3-36.3 0-20 16.3-36.3 36.3-36.3 6.7 0 13 1.8 18.3 5l-24.5 28.2h-.2v10l41.9-.1C79.7 178.3 64.9 191 47.3 191zm143.6-.1c-20 0-36.3-16.3-36.3-36.3 0-12.8 6.6-24 16.6-30.5 9.4 18.2 17.8 34 18.5 35.3l8.8-4.7c-.2-.3-8.7-16.3-18.2-34.9 3.4-1 6.9-1.6 10.6-1.6 20 0 36.3 16.3 36.3 36.3 0 20.1-16.2 36.4-36.3 36.4zM231.3 100.2c8.8 0 15.9-7.1 15.9-15.9 0-3.2-1-6.3-2.8-9l-9.3-16.5-.3-.6h-.1c-.9-1-2.1-1.5-3.4-1.5-1.3 0-2.6.6-3.4 1.5h-.2L218.4 75c-2 2.7-3 6-3 9.3 0 8.8 7.2 15.9 15.9 15.9zm-11-24l8.9-15.9.2-.3c.4-.6 1.2-1 1.9-1 .8 0 1.5.4 1.9 1l.1.1 9.2 16.4.1.1c1.6 2.3 2.4 5 2.4 7.8 0 7.5-6.1 13.7-13.7 13.7-7.5 0-13.7-6.1-13.7-13.7.1-3 1-5.8 2.7-8.2z" class="st0"/>
  <path d="M231.3 102.3c-9.9 0-18-8.1-18-18 0-3.8 1.2-7.4 3.3-10.4 0 0 6.4-14.1 10.1-17.5.9-.9 2.9-1.7 4.5-1.7s3.9.7 4.8 1.8c1.3 1.7 10.1 17.8 10.1 17.8 2 3 3.1 6.5 3.1 10.1.1 9.8-7.9 17.9-17.9 17.9zm-.4-40.9l-9 16.1c-1.5 2-2.2 4.4-2.2 6.9 0 6.4 5.2 11.6 11.6 11.6 6.4 0 11.6-5.2 11.6-11.6 0-2.4-.7-4.7-2.1-6.6l-.1-.2-9.2-16.4c-.2-.3-.4-.2-.5 0l-.1.2z"/>
</svg>
