<svg xmlns="http://www.w3.org/2000/svg" viewBox="0 0 495.78 102.93" fill="#4f5a52" class="logo"><g data-name="Livello 2"><g data-name="Livello 1"><path d="M26.38 34.94l-1.45-1.34 9.52-10.34 4.61 3.85 9.65-10.91 6.27 7.26-1.5 1.29-4.79-5.55-9.42 10.66-4.64-3.88-8.25 8.96zM40.86 99.52H26.11V93h14.75zm-12.78-2h10.81V95H28.08zM96.39 99.52h-42.7V93h42.7zm-40.72-2h38.74V95H55.67zM122.42 99.52h-14V93h14zm-12-2h10.08V95h-10.13z"/><path d="M53.74 94.42c-1.93-2.2-4-3.32-6.18-3.32-3.73 0-6.57 3.25-6.6 3.29l-1.5-1.3c.14-.16 3.48-4 8.09-4 2.76 0 5.34 1.34 7.67 4z"/><path d="M29.72 94h-2V71.68c0-.41.38-9.34 5.4-13.83a9.9 9.9 0 017.6-2.46c2.85-.06 55.17-1 63.36 2.4 8 3.32 12.76 9.75 16.35 35.68l-2 .27c-3.47-25-7.83-31.09-15.15-34.12-7.87-3.25-62.07-2.27-62.62-2.26h-.09a8 8 0 00-6.18 2c-4.39 3.92-4.74 12.31-4.74 12.4z"/><path d="M96.3 94.45l-1.57-1.2c.13-.17 3.16-4.07 7.57-4.22 2.69-.1 5.27 1.23 7.63 3.92l-1.48 1.31c-2-2.23-4-3.32-6.08-3.25-3.49.12-6.04 3.4-6.07 3.44z"/><path d="M112.71 93.61h-2c.19-22.83-3.54-30.44-4.53-32h-74.1v-2h75.1l.29.35c.23.23 5.46 6.76 5.24 33.65z"/><path d="M109.08 93.81c-.9-4.2-3.43-7.06-6.3-7.12-6.53-.14-16 0-16.13 0h-1V61.14h2v23.53c2.62 0 9.88-.07 15.19 0 3.8.08 7.09 3.57 8.19 8.69z"/><ellipse cx="114.97" cy="87.32" rx="1.29" ry="2.05"/><path d="M46.05 78.73h-7.87a2.43 2.43 0 01-2.43-2.43v-7.87A2.43 2.43 0 0138.18 66h7.87a2.43 2.43 0 012.43 2.43v7.87a2.43 2.43 0 01-2.43 2.43zM38.18 68a.47.47 0 00-.46.46v7.84a.47.47 0 00.46.46h7.87a.47.47 0 00.46-.46v-7.87a.47.47 0 00-.46-.46zM61.39 78.73h-7.87a2.43 2.43 0 01-2.43-2.43v-7.87A2.43 2.43 0 0153.52 66h7.87a2.43 2.43 0 012.43 2.43v7.87a2.43 2.43 0 01-2.43 2.43zM53.52 68a.47.47 0 00-.46.46v7.84a.47.47 0 00.46.46h7.87a.47.47 0 00.46-.46v-7.87a.47.47 0 00-.46-.46zM76.75 78.73h-7.86a2.43 2.43 0 01-2.44-2.43v-7.87A2.43 2.43 0 0168.89 66h7.86a2.43 2.43 0 012.44 2.43v7.87a2.43 2.43 0 01-2.44 2.43zM68.89 68a.47.47 0 00-.46.46v7.84a.47.47 0 00.46.46h7.86a.47.47 0 00.46-.46v-7.87a.47.47 0 00-.46-.46zM107.39 78.73H93a3.64 3.64 0 01-3.64-3.64v-5.45A3.64 3.64 0 0193 66h15.4c.76 0 1.89 0 3.13 9v.13c-.01 2.04-2.19 3.6-4.14 3.6zM93 68a1.67 1.67 0 00-1.67 1.67v5.45A1.67 1.67 0 0093 76.76h14.41c.92 0 2.1-.78 2.15-1.61A37.83 37.83 0 00108 68zM84.67 27.65a7.72 7.72 0 00-2.42.39c-1.17-2.29-2.31-4.6-3-6.1l2.66-1-.71-1.84-4.51 1.74.34.91c.3.8.88 2.08 1.6 3.57l-8.77-.18-.42-2h1.68v-2H64.3v2h3.16l.41 1.94-3 3.65a7.79 7.79 0 103.78 8H72l7.7-9.42.8 1.59a7.78 7.78 0 104.21-1.24zm-7.51-.41l-5.42 6.62-1.43-6.76zm-8.77.32l1.52 7.21h-1.16a7.77 7.77 0 00-2.29-4.85zm-3.18 3.9a5.81 5.81 0 011.55 3.32H62.5zM61 41.27a5.82 5.82 0 112.62-11L60 34.77v2h6.7a5.82 5.82 0 01-5.7 4.5zm23.67 0a5.81 5.81 0 01-3.3-10.6c1.51 2.94 2.84 5.44 3 5.66l1.74-.93s-1.38-2.58-2.91-5.56a5.81 5.81 0 111.51 11.43z"/><path d="M110.7 53.59H33.15l3.14-1.84A72.65 72.65 0 0148.5 46l.66 1.86a70.17 70.17 0 00-8.53 3.72h62.74c-7.57-3.71-26.94-11.3-49.26-5.27l-.52-1.9c29.5-8 54 7.17 54.23 7.32z"/><path d="M48.8 51l-3-12.5 1.49.27c.29.05 7 1.37 8.47 9.38l.15.89zm-.32-9.74l1.76 7.3 3.36-.93a9.29 9.29 0 00-5.12-6.34zM21.86 61.84h3.46l-3.76-7.53h3.76l-6.18-12.36-6.18 12.36h3.77l-3.77 7.53h3.47l-3.47 6.93h5.14v14.4h1.98v-14.4h5.24l-3.46-6.93zM130.09 54.31h3.76l-6.18-12.36-6.18 12.36h3.76l-3.76 7.53h3.47l-3.47 6.93h5.19v14.35h1.98V68.77h5.19l-3.47-6.93h3.47l-3.76-7.53zM120.58 34.94l-8.24-8.96-4.64 3.88-9.43-10.66-4.79 5.55-1.5-1.29 6.28-7.26 9.65 10.91 4.6-3.85 9.52 10.34-1.45 1.34zM10.58 80.01L5.29 58.57 0 80.01h4.43v10.11h1.64V80.01h4.51zM47.38 102.93a5.34 5.34 0 115.34-5.33 5.34 5.34 0 01-5.34 5.33zm0-8.92A3.59 3.59 0 1051 97.6a3.58 3.58 0 00-3.62-3.6zM102.39 102.93a5.34 5.34 0 115.34-5.33 5.34 5.34 0 01-5.34 5.33zm0-8.92A3.59 3.59 0 10106 97.6a3.59 3.59 0 00-3.61-3.6zM73.23 17.33a5 5 0 115-5 5 5 0 01-5 5zm0-7.83a2.84 2.84 0 102.84 2.84 2.84 2.84 0 00-2.84-2.84zM72.15 0h2.15v5.4h-2.15zM79.348 7.315l4.98-2.085.831 1.983-4.98 2.085zM61.168 7.224l.83-1.984 4.981 2.084-.83 1.984zM79.346 15.167l.83-1.984 4.982 2.085-.83 1.983zM61.172 15.268l4.982-2.084.83 1.983-4.982 2.084zM191.54 43.89a12.53 12.53 0 008-2.86l3.28 5.16a16.68 16.68 0 01-11.45 4.3c-8.74 0-15.29-6.43-15.29-14.91s6.55-14.9 15.29-14.9A16.64 16.64 0 01202.78 25l-3.28 5.15a12.52 12.52 0 00-8-2.85 8 8 0 00-8.14 8.3 8 8 0 008.18 8.29zM216.16 21.1h8.43l10.95 29h-7.24l-2-5.32h-12.1l-2 5.32H205zM216 39.5h8.6l-4.22-11.33zM265.82 32.34l-8.73 10.48h-1.24l-8.68-10.48v17.72H240v-29h6.18l10.3 12.1L266.8 21.1h6.2v29h-7.15zM280.82 21.1h14.39c5.75 0 10.69 3.37 10.69 10.73 0 6.6-4.94 10.57-10.69 10.57H288v7.66h-7.15zm7.18 6.22v8.86h6.13a4.23 4.23 0 004.39-4.39 4.2 4.2 0 00-4.39-4.47zM311.36 21.1h7.15v29h-7.15zM333.5 32.47v17.59h-7.15v-29h6.22l14.6 17.59V21.1h7.16v29h-6.22zM388.36 46.44c-2.68 2.17-8.05 4.05-12.48 4.05-8.56 0-15.41-5.54-15.41-14.87s6.85-14.94 15.41-14.94a17.9 17.9 0 0111.37 3.87L384 30a12.47 12.47 0 00-8-2.68c-4.64 0-8.18 3-8.18 8.34s3.54 8.27 8.52 8.27a11.67 11.67 0 005.24-1.24v-4.3h-6.94v-5.45h13.71zM418.22 27.32h-13.8V21.1h23V26l-13.75 17.8h13.75v6.22h-23v-4.9zM446.63 20.68a14.57 14.57 0 0114.95 14.94 14.91 14.91 0 01-29.81 0 14.55 14.55 0 0114.86-14.94zm0 23.08c4.69 0 7.88-3.54 7.88-8.14s-3.19-8.17-7.88-8.17a7.8 7.8 0 00-7.88 8.17 7.82 7.82 0 007.88 8.14zM480.83 20.68a14.57 14.57 0 0114.95 14.94 14.91 14.91 0 01-29.81 0 14.55 14.55 0 0114.86-14.94zm0 23.08c4.69 0 7.88-3.54 7.88-8.14s-3.19-8.17-7.88-8.17a7.81 7.81 0 00-7.83 8.17 7.83 7.83 0 007.83 8.14zM147 80.01l-5.28-21.44-5.3 21.44h4.42v10.11h1.64V80.01H147zM389.9 73.69a.69.69 0 00-.39-.61c-.25-.13-.53-.31-.81 0a1.06 1.06 0 01-.2.17c-.13 0-.24.09-.26.26a.78.78 0 000 .34c.05.19.22.38 0 .57.21.09-.07.3.09.4a1.5 1.5 0 01-.08.66 2.56 2.56 0 00-.1.51 1.39 1.39 0 01-.12.41c-.36.56-.65 1.17-1.06 1.69-.27.33-.53.66-.82 1s-.42.21-.52.38a1.09 1.09 0 01-.5.37c-.31.15-.44.54-.83.57a9.35 9.35 0 01-1.52.9 5.48 5.48 0 01-.79.33l-.45.14a4.83 4.83 0 01-.62.18 6.8 6.8 0 01-1.35-.08s-.07 0-.11-.07l-.62-.29c-.05 0-.12 0-.14-.1-.1-.25-.33-.39-.5-.58a.33.33 0 01-.1-.14c-.1-.39-.37-.74-.29-1.18a1.68 1.68 0 010-1.37c.07-.17 0-.36.07-.53s0-.37.1-.56.09-.42.15-.63.12-.45.2-.66a2.57 2.57 0 01.29-.83c.06-.07 0-.22.1-.33a1 1 0 00.16-.34c0-.1.12-.26.08-.31-.16-.2.26-.1.13-.26a9 9 0 00.77-1.26.14.14 0 01.07-.06c.19-.12.17-.31.16-.49a.39.39 0 00-.36-.38.87.87 0 00-.49.16c-.28.14-.42.41-.61.62a2.12 2.12 0 00-.42.62 3.21 3.21 0 01-.78 1c-.07.08-.11 0-.13 0a1.77 1.77 0 01-.24-.55c0-.27-.22-.36-.41-.48s-.37-.3-.63-.28-.32.06-.41 0-.29-.06-.43-.08c-.1.18-.27 0-.4.07a5.11 5.11 0 00-.82.37 9.82 9.82 0 00-1.33.81 1.55 1.55 0 00-.54.47c-.08.12-.2.15-.27.25s-.17.24-.26.35l-.84 1a.17.17 0 000 .12.77.77 0 01-.28.48l-.48.5c-.41.38-.79.78-1.18 1.18a1.71 1.71 0 00-.18.2 1.53 1.53 0 01-.46.55.92.92 0 00-.26.26 1.72 1.72 0 01-.68.78.35.35 0 00-.2.09c-.06.31-.43.38-.49.68-.29.1-.41.4-.65.56a8.89 8.89 0 01-1.08.73c-.21.12-.36.36-.65.32a.1.1 0 00-.08 0c-.1.15-.25.14-.4.14s-.27 0-.38.09-.16-.17-.26 0a.21.21 0 01-.09 0c-.17-.16-.34-.3-.5-.47a.46.46 0 01-.12-.5c.09-.2.12-.41.21-.61a2.81 2.81 0 01.3-.57 16 16 0 001-1.8 2.53 2.53 0 00.19-.48c.05-.16 0-.35.1-.51s0-.48.22-.65v-.17a7.53 7.53 0 00-.1-1.25c-.19-.21-.15-.52-.35-.74s-.43-.7-.68-1a4.1 4.1 0 01-.25-.4 1.81 1.81 0 01.05-.39c.1-.2 0-.27.1-.47a2.42 2.42 0 00.16-.5c0-.16 0-.38.06-.47s.9-1.56.11-1.73c-.34-.07-1.49 1.3-1.51 1.38a2.55 2.55 0 01-.24.8s-.11.86-.16.94c-.12.24-.29.47-.21.69s0 .09 0 .13c-.2.35-.51.61-.68 1a1.52 1.52 0 00-.51.53 18 18 0 01-1.34 1.81c0 .21-.33.19-.33.41-.19.07-.26.26-.36.4a4.46 4.46 0 01-.53.61c-.06.06-.16.08-.21.15a8.57 8.57 0 01-1 1.13c-.13.13-.26.26-.38.4s-.14.22-.24.32-.29.15-.33.27c-.13.33-.44.42-.7.57a1 1 0 01-.68.13.61.61 0 01-.58-.44c-.05-.29-.07-.59-.1-.88a.41.41 0 010-.22 6.32 6.32 0 01.44-1.07c.11-.14 0-.3.11-.42s.11-.44.25-.58a2.13 2.13 0 00.29-.53 1.26 1.26 0 00.18-.3 4.7 4.7 0 00.15-.9 2.31 2.31 0 00-.43-1.72 1.79 1.79 0 01-.3-.47 2.49 2.49 0 01-.21-.8 2.4 2.4 0 01.43-1.3c.1-.17.23-.31.21-.52a.17.17 0 010-.12c.32-.32.32-.8.58-1.15a.13.13 0 000-.12c-.07-.11-.13-.25-.23-.3a.45.45 0 00-.36 0c-.32.2-.73.34-.91.66s-.71.72-.8 1.24c0 .1-.13.17-.16.26s-.06.25-.1.38-.12.25-.18.38c.17.14 0 .21-.06.32a.48.48 0 01-.21.42c0 .25-.24.32-.33.51a1.4 1.4 0 01-.22.32 2.73 2.73 0 00-.36.5 1.85 1.85 0 01-.35.51 4.77 4.77 0 00-.48.63 4.77 4.77 0 01-.66.89 2 2 0 00-.49.59.31.31 0 01-.16.16c-.22.07-.33.25-.48.4a19.16 19.16 0 01-2.14 2c-.19.15-.45.21-.61.42h-.17c-.06 0-.15 0-.19.08a.4.4 0 01-.29.12.27.27 0 00-.19.08c-.14.18-.38 0-.52.19l-.34-.19a.83.83 0 01-.32-.37 2.15 2.15 0 01-.19-.67c0-.06-.06-.1 0-.2a6.05 6.05 0 00.3-.94c.09-.31.16-.73.66-.69h.07a3.75 3.75 0 001-.5 8.38 8.38 0 001.23-.92c.22-.2.28-.54.61-.63 0-.2.26-.24.27-.39s.15-.29.25-.41.16-.08.21-.14.05-.16.08-.24.11-.22.1-.33.13-.21 0-.3.14-.24 0-.33c0-.15-.06-.3.07-.44s0-.17 0-.24a.84.84 0 00-.2-.29 3.61 3.61 0 00-.42-.33c-.15-.1-.36.07-.51-.11 0 0-.12.08-.18.08a1.55 1.55 0 00-1 .43c-.31.23-.78.3-.88.77h-.08c-.03 0-.37.13-.39.37-.7.36-.88 1.09-1.22 1.71a1.14 1.14 0 00-.18.47 3.93 3.93 0 01-.23.71.49.49 0 01-.3.39 2.24 2.24 0 00-.61.51 5.54 5.54 0 00-.37.45c-.13.16-.31.27-.39.49s-.27.24-.39.38a10.88 10.88 0 01-1 .94 5.88 5.88 0 01-1.61 1 1 1 0 01-1.06-.17 1 1 0 01-.26-.4 1.46 1.46 0 010-.69c.18-.52.24-1.06.44-1.57.06-.16.08-.34.13-.5a2.64 2.64 0 00.13-.46c0-.15.28-.25.1-.44.24-.17.23-.46.31-.7s.19-.3.23-.46a5.31 5.31 0 00.09-.79 2.12 2.12 0 01.21-.66c0-.06.14-.09.22-.12a.73.73 0 01.25-.08 1.25 1.25 0 01.58 0 2.41 2.41 0 001.09.15.89.89 0 01.6.11.19.19 0 00.1 0 2.33 2.33 0 001-.34 1.57 1.57 0 00.33-.3 1 1 0 00.19-.38c0-.06 0-.15-.06-.23-.06-.34-.22-.45-.56-.34a.89.89 0 01-.6 0c-.16 0-.37.15-.58 0-.23 0-.44-.13-.69-.12s-.5 0-.74 0c-.48 0-.5 0-.5-.42a1.19 1.19 0 01.16-.77c.06-.09.07-.24.17-.34s0-.25.08-.38a4.19 4.19 0 00.32-1.31.72.72 0 01.15-.35 1.34 1.34 0 00.13-.27 3.25 3.25 0 00.17-.81c0-.27-.05-.37-.27-.39a.53.53 0 00-.53.19s-.12.07-.19.09-.2.2-.34.27-.05.2-.06.3a6.09 6.09 0 01-.22.74 1.81 1.81 0 00-.14.45c0 .27-.26.5-.19.8 0 0-.07.07-.09.1a.28.28 0 00-.08.15 14.25 14.25 0 01-.48 1.61.56.56 0 01-.6.42c-.28 0-.57-.08-.84.09h-.37a.88.88 0 01-.38.09c-.15 0-.19.26-.39.19h-.07c-.02 0-.28.2-.32.33a2.53 2.53 0 000 .62h.08c.03 0 .16.15.31 0s.27 0 .41 0 .39 0 .56.09a1 1 0 01.61-.09h.23a.13.13 0 01.1.22 1.58 1.58 0 00-.36.69 1.76 1.76 0 01-.16.4c-.16.3-.33.6-.49.91s-.49.75-.71 1.14a4 4 0 01-.48.54 4.4 4.4 0 01-.46.5c-.18.15-.15.45-.41.52 0 .18-.23.2-.32.33s-.19.26-.3.39a6 6 0 01-1.05.89 4 4 0 01-1.25.69c-.07 0-.17-.09-.23 0s-.06 0-.09 0a1.79 1.79 0 01-.13-.22 1.25 1.25 0 01-.15-.36c-.06-.26.08-.54-.09-.8v-.06c0-.06 0-.27.05-.35s0-.23 0-.35-.07-.3.06-.44.05-.13 0-.16a.3.3 0 01.06-.47v-.09c0-.03-.06-.18 0-.21.24-.27.17-.6.17-.91a.61.61 0 01.13-.36 1.72 1.72 0 00.33-.93.59.59 0 01.09-.24 2 2 0 01.45-.83.26.26 0 00.05-.09 1.66 1.66 0 01.32-.52.54.54 0 00.16-.34 1 1 0 01.17-.44 2.88 2.88 0 00.33-.79c0-.07.07-.12 0-.2s-.13-.25-.2-.37c-.2 0-.4-.14-.6 0s-.24.37-.51.33v.08c0 .21-.23.34-.34.51a4.08 4.08 0 00-.21.56c0 .1-.13.19-.18.29-.12.28-.3.52-.42.8a3.4 3.4 0 01-.07.34 2.83 2.83 0 01-.34.51.27.27 0 01-.19.06s-.05-.08-.08-.12-.09-.13-.09-.2a2 2 0 00-.56-1.2 1.13 1.13 0 00-.66-.41h-.47a1.54 1.54 0 00-.95.28 5 5 0 00-1.39 1 5.43 5.43 0 01-.66.7 3.21 3.21 0 00-.57 1c-.08.17-.14.25-.32.24a.49.49 0 00-.48.18s-.13.06-.18.11c-.23.18-.55.22-.74.46-.29 0-.48.16-.72.26a1 1 0 01-.59.08 4.15 4.15 0 01-.74-.22 1 1 0 01-.69-.87 1.68 1.68 0 00-.08-.62.48.48 0 01.14-.58v-.17c.15-.31.15-.69.48-.91 0 0 0-.12.07-.15.22-.18 0-.33 0-.48s-.22-.12-.36-.12a.64.64 0 00-.39.18c-.07.05-.12.15-.2.19a1.19 1.19 0 00-.61.71c-.07.17-.2.32-.29.49s-.11.37-.29.48a.27.27 0 000 .16v.27c-.19.43-.4.85-.61 1.28a1.63 1.63 0 01-.09.19l-.62.81c-.06.08-.11.25-.16.25s-.17.14-.18.2a1.06 1.06 0 01-.33.52 2.27 2.27 0 00-.18.25 4.59 4.59 0 01-.74.84 3.58 3.58 0 00-.51.44 1.39 1.39 0 01-1 .37c-.16 0-.22-.09-.25-.25s.13-.2 0-.35 0-.27 0-.41a.47.47 0 010-.17 2.09 2.09 0 00.27-.82 3 3 0 01.32-.84 6.25 6.25 0 00.2-.61 1.45 1.45 0 01.25-.53c.21-.2 0-.45.15-.64s.06-.19.1-.29a3.56 3.56 0 00.32-1.44c0-.14-.08-.3.05-.44s0 0 0-.06c-.1-.22-.18-.45-.3-.66s-.25-.46-.58-.36h-.05c-.69-.14-.72-.15-1.25.15-.15.08-.27.24-.42.32a2.59 2.59 0 00-.48.3c-.14.11-.27.23-.42.33s-.16.37-.41.33a.49.49 0 010 .12 1.71 1.71 0 01-.13.23l-.94 1.23c-.21.26-.46.49-.64.76s-.45.44-.63.7-.32.35-.46.55a10.51 10.51 0 01-1.25 1.57c-.25.24-.47.5-.72.73s-.24.37-.51.34c0 0-.12.07-.12.12 0 .22-.22.19-.35.27s-.15-.05-.21 0-.16.15-.25.17a.56.56 0 01-.31 0c-.09 0-.17-.13-.26-.13a.43.43 0 01-.4-.3c0-.07-.12-.11-.14-.18s.06-.2 0-.21 0-.23-.12-.33.06-.22 0-.35a1.88 1.88 0 01.19-.93 2 2 0 00.16-.4 7 7 0 01.42-1.49c.06-.16.08-.32.23-.42a.27.27 0 00.06-.09c-.16-.13.14-.23 0-.35.15-.12.05-.29.09-.43a2.48 2.48 0 01.3-.88 5.27 5.27 0 011-1c.29-.2.68-.35.72-.79.28.07.29-.22.41-.34a7 7 0 00.52-.7 2.11 2.11 0 01.2-.29c.11-.1.24-.17.35-.27s.2-.25.3-.36a2.33 2.33 0 00.59-.84 1.82 1.82 0 01.4-.58c.18-.2.35-.41.52-.62 0 0 .07-.08.06-.11-.09-.22.1-.34.2-.47s.25-.52.42-.75a7.13 7.13 0 00.49-1c.1-.27 0-.62.31-.8a.16.16 0 000-.12c0-.22.07-.44.09-.66s0-.46 0-.69a.53.53 0 00-.09-.34c-.07-.08-.05-.23-.11-.32s0-.19-.05-.28a.82.82 0 00-.58-.67 1.37 1.37 0 00-.4 0 2.49 2.49 0 00-.89.31 1.29 1.29 0 01-.4.24c-.19 0-.14.27-.32.33s-.26.28-.49.28c0 .22-.22.32-.36.45s-.27.51-.57.6a6.72 6.72 0 00-.92 1.75c-.09.3-.2.59-.31.88s-.29.69-.41 1a10.89 10.89 0 01-.45 1.2 10.9 10.9 0 01-.52 1.22 1.6 1.6 0 00-.12.37c-.18.46-.31.94-.51 1.41a5.11 5.11 0 00-.41 1.36 1 1 0 01-.18.47c-.2.26-.36.54-.57.78s-.11.37-.28.5c-.34.27-.49.7-.79 1a1.31 1.31 0 00-.36.46c-.06.17-.21.24-.29.38s-.22.25-.31.39-.12.28-.33.3 0 .31-.18.4-.11.11-.16.16-.26.32-.4.48a3.75 3.75 0 01-.62.7 1.63 1.63 0 00-.36.33c-.11.17-.3.11-.42.22a2.71 2.71 0 01-.83.46.71.71 0 01-.45.12 2 2 0 01-.65-.43.85.85 0 01-.08-.69c0-.41 0-.81.06-1.22s.17-.83.24-1.25a5.48 5.48 0 01.35-1.06c.14-.35.41-.68.34-1.1 0 0 0-.08.06-.12a2.35 2.35 0 00.14-.4c0-.1.11-.2.12-.33a2.31 2.31 0 01.17-.36 8.3 8.3 0 00.61-1.36c.2-.17 0-.31 0-.48s-.33-.15-.4-.1a2.74 2.74 0 00-.75.73s-.11 0-.11.06c.05.25-.17.34-.3.47a2.61 2.61 0 00-.45.65 3.3 3.3 0 01-.26.45c-.17.25-.4.16-.46 0a1.17 1.17 0 00-.65-.69 2.29 2.29 0 01-.67-.4h-.07a3.81 3.81 0 00-.83 0 1.85 1.85 0 00-.59.34c-.19.13-.35.29-.52.43a3.58 3.58 0 00-.51.44c-.14.16-.31.29-.45.45a3.24 3.24 0 00-.24.31c-.36.53-.39 1.21-.82 1.7v.09a8.78 8.78 0 01-.35 1.43 2.32 2.32 0 00-.09.65c0 .22-.08.44-.09.66s.08.38.09.56c0 .47.09.49.46.78.19.15.39 0 .54.15s.38 0 .55-.13a4.24 4.24 0 00.74-.54c.34-.3.76-.51 1-.93.34-.1.44-.5.77-.6.06-.22.35-.31.37-.49s.23-.35.35-.51l.41-.57a1.57 1.57 0 01.21-.24h.09a.23.23 0 010 .09.41.41 0 00-.16.4c0 .07 0 .13-.07.2a8.59 8.59 0 00-.27 1.5 5.79 5.79 0 000 1 1.42 1.42 0 00.14.59 5.46 5.46 0 00.54.75 1.86 1.86 0 001.4.64.41.41 0 00.33-.12c.11-.11.27-.26.4-.24a.68.68 0 00.56-.22 2.39 2.39 0 01.59-.36 1.14 1.14 0 00.25-.18 15.1 15.1 0 001.08-1.18c.33-.43.77-.77 1.11-1.21s.45-.68.7-1c0 0 .3-.42.32-.41s.13 0 .14 0a.23.23 0 010 .18 8.77 8.77 0 00-.29 1.12c0 .07-.08.15-.06.21.05.22-.12.4-.11.61 0 0-.07.08-.07.09.17.24 0 .51.09.76a6.91 6.91 0 00.25.77c0 .09.1.17.14.27a.41.41 0 00.27.26c.2 0 .22.23.37.28 0 .27.37.14.48.34h.21c.38.06.7-.24 1.08-.21.06 0 .13-.14.21-.16a2.1 2.1 0 001.14-.8 2 2 0 01.58-.39.57.57 0 00.38-.45.57.57 0 01.34-.43 1.92 1.92 0 00.46-.33 1.19 1.19 0 00.19-.33 3 3 0 00.2-.34c.06-.12.28-.06.26-.26.2-.08.14-.41.42-.42v-.07a1.36 1.36 0 01.44-.79c.15-.12.33-.16.4-.39s.27-.26.36-.45a1.11 1.11 0 01.41-.51 1.32 1.32 0 00.5-.55c.09-.15.12-.38.25-.48a2.83 2.83 0 01.78-.55c.11 0 .18-.06.17-.2s.09-.18.21-.2.27-.08.41-.12.08 0 .1 0a.86.86 0 01.3.61c-.19.22 0 .54-.18.76.07.33-.24.57-.21.89-.17.15-.09.41-.2.56a2.36 2.36 0 00-.32.75c-.11.3-.33.56-.28.9-.23.2-.22.5-.29.76a5.61 5.61 0 00-.24 1.52 1.22 1.22 0 00.34.93 1.19 1.19 0 001.06.43c.08 0 .16-.08.24-.09a1.5 1.5 0 00.85-.29c.32-.21.62-.45.92-.68a.36.36 0 00.11-.14c.05-.21.21-.3.39-.4s.47-.17.44-.49l.05-.07 1-1.2a1.32 1.32 0 00.19-.29 4.51 4.51 0 01.75-1c.05-.07.09 0 .13 0a1.84 1.84 0 00.26.36 3.31 3.31 0 001.21.65c.23 0 .46.2.68.12a2.19 2.19 0 01.66-.09h.09c.4-.23.86-.32 1.24-.59a.92.92 0 01.64-.25c.06 0 .11 0 .05.1-.2.34-.06.78-.31 1.12v.18a.87.87 0 010 .23 1.22 1.22 0 000 .85 3.65 3.65 0 00.35.78s.09.13.13.13c.23 0 .36.19.54.27a.5.5 0 00.38 0 1.72 1.72 0 01.59-.16A1 1 0 00326 81a1.4 1.4 0 01.42-.42c.18-.09.28-.31.49-.39a.81.81 0 00.38-.3 3.92 3.92 0 011-1.09 1.26 1.26 0 00.36-.45 1.85 1.85 0 01.62-.76s.07-.11.13 0a.17.17 0 010 .13c0 .17-.17.36-.11.49a1 1 0 010 .63c-.07.42-.08.86-.12 1.3v.65a2 2 0 00.1.6c.14.38.14.87.65 1 0 0 .09.12.14.13s.33.2.49 0 .17.13.25 0 .23 0 .31-.12.36-.06.54-.16a2.22 2.22 0 01.47-.2c.19 0 .28-.2.42-.3a5.35 5.35 0 00.68-.58 3.58 3.58 0 01.39-.29 2.87 2.87 0 00.54-.56c.05 0 .06-.13.1-.19a9.58 9.58 0 00.86-.94c.21-.37.58-.64.8-1a.15.15 0 01.06 0 2.79 2.79 0 01-.17 1 2 2 0 00-.18.89c0 .16-.15.3-.09.42s.09.46.2.66.29.38.39.58a1 1 0 00.78.56c.14 0 .27.1.41.15s.11 0 .12 0 .22-.07.33-.1a1.73 1.73 0 00.3-.16c.11 0 .22-.07.32-.12s.21-.16.28-.14.17-.11.27-.16l.34-.16a3.09 3.09 0 00.32-.14 4.31 4.31 0 00.59-.44 2.29 2.29 0 00.51-.56 2.4 2.4 0 01.45-.45c.1-.08.25-.06.32-.24s.24-.2.37-.3.07-.16.16-.07a.31.31 0 01.09.19v.61a1.61 1.61 0 00.33.92c.14.19.27.38.42.57a.72.72 0 00.53.37 1.39 1.39 0 01.32.12c.06 0 .18.06.21 0s.28-.07.43-.09a1.19 1.19 0 00.26 0 2.74 2.74 0 01.57-.28 2.45 2.45 0 00.6-.25 3.86 3.86 0 001.12-.85 1.58 1.58 0 01.7-.55.39.39 0 00.2-.18 1.53 1.53 0 01.67-.59.44.44 0 00.26-.26 1 1 0 01.48-.58 1.55 1.55 0 00.23-.21 2.45 2.45 0 00.45-.46c.06-.08.2-.1.16-.26a.17.17 0 01.09-.1c.16 0 .18-.2.28-.29s.23-.25.36-.36a3.66 3.66 0 00.8-1.11c.08-.14.12-.27.31-.26 0 0 0-.09.09-.11.2-.12.14-.39.31-.53s.17-.16.29 0 .36.52.53.79a1.66 1.66 0 01.17.62.86.86 0 01-.13.41c-.15.15 0 .27 0 .43s-.11.29-.18.43a2.45 2.45 0 01-.26.54c-.13.16-.1.39-.24.5s-.14.38-.23.56a6 6 0 01-.22.64c-.16.23 0 .51-.16.73a.31.31 0 000 .31.43.43 0 01.08.34v.69c0 .12.05 0 .06.07a1.44 1.44 0 00.77.8 1.13 1.13 0 00.39.17 3.44 3.44 0 001.15-.11c.15 0 .27-.19.42-.22s.23-.26.46-.25.23-.16.34-.27.36-.2.41-.43c.23-.07.35-.28.51-.44s.17-.29.3-.37.18-.3.32-.32.19-.24.31-.34a4.24 4.24 0 00.42-.43c.12-.15.2-.32.32-.47s.35-.17.37-.4c0 0 .07 0 .11-.05.22-.08.31-.28.43-.45s.22-.34.35-.5a3.76 3.76 0 01.73-.76.77.77 0 00.21-.23c.06-.1.1-.21.15-.31a2.72 2.72 0 00.16-.35c0-.12.21 0 .26-.21s.28-.32.34-.51.35-.28.38-.54c0-.07.25-.08.26 0s.11.18.18.25a2.23 2.23 0 01.66 1.12 3.84 3.84 0 00.11.46c.07.18-.07.34-.09.51a2.74 2.74 0 01-.15.4 2.3 2.3 0 00-.2.61 1.7 1.7 0 01-.15.5c-.14.3-.3.59-.44.88a12.86 12.86 0 01-.71 1.1 2.16 2.16 0 00-.16.49 2.33 2.33 0 00-.08.38c0 .13-.14.3-.1.41a.87.87 0 01.08.38 1.53 1.53 0 00.89 1.34 1.65 1.65 0 001.08.28l.84-.1c.06 0 .1-.08.15-.09.25-.07.41-.35.71-.29l.68-.5c.19-.14.31-.36.54-.47a2.81 2.81 0 00.61-.43 8.86 8.86 0 01.91-.82s0-.07.07-.1a3 3 0 01.79-.88 2.71 2.71 0 00.58-.59c.09-.1.15-.22.25-.32s.14-.13.22.1a4.28 4.28 0 01.25.68 1 1 0 00.47.63 1.35 1.35 0 00.77.26 1.57 1.57 0 00.48-.09c.14 0 .26-.14.39-.17a2.48 2.48 0 01.41-.08 1.2 1.2 0 00.47-.28 8.36 8.36 0 01.66-.55c.25-.16.33-.49.63-.57 0-.17.21-.23.3-.34a2.9 2.9 0 01.38-.33 1.07 1.07 0 00.26-.26 8.07 8.07 0 01.64-.67c.08-.09.21 0 .27-.1a.54.54 0 01.34-.29c.18-.06.22-.3.44-.3a.43.43 0 00.13-.05.57.57 0 010 .13 5.17 5.17 0 00-.27 1.7.47.47 0 010 .16 2.48 2.48 0 000 .9c.13.09.06.23.08.34a1 1 0 01.09.33c0 .29.22.48.23.74a12.82 12.82 0 00.88 1.07 3.45 3.45 0 001.21.78c.12 0 .23.19.36.06s.27.15.39 0 .1 0 .13 0c.13.22.37 0 .54.15s.16 0 .25-.08.26-.26.46-.07.19 0 .27-.1.25-.2.59-.18a.32.32 0 00.33-.1.53.53 0 01.25-.17c.33-.11.64-.25 1-.36a3.87 3.87 0 001-.56c.3-.21.62-.39.9-.62s.83-.34 1-.81h.05c.32 0 .45-.35.71-.51a2.46 2.46 0 00.66-.63 6.38 6.38 0 00.53-.66 4.83 4.83 0 01.63-.9 1.1 1.1 0 00.22-.37 1.54 1.54 0 01.49-.82c.07-.07.18-.12.16-.26a.49.49 0 01.14-.4c.1-.13 0-.29.11-.43a.61.61 0 00.11-.5v-.18c.28-.31-.02-.69 0-1zm-45.2 2.09c.23-.28.28-.67.53-.94s.17-.35.36-.45.09-.23.25-.26.26-.12.27-.2.21-.12.29-.24a.45.45 0 01.43-.16c.12 0 .2.07.22.19a1.74 1.74 0 01-.43 1.29c-.16 0-.09.13-.15.17a3.17 3.17 0 01-.46.36 2.33 2.33 0 00-.35.27 1.8 1.8 0 01-.65.32.38.38 0 00-.23.11s-.06 0-.1.06a.24.24 0 010-.08v-.23c0-.14-.04-.14.02-.21zm-38.55-3.54a1.61 1.61 0 00.32-1v-.16c0-.26.3-.42.23-.7.23-.13.19-.41.31-.61a1.26 1.26 0 00.23-.73.4.4 0 01.17-.38c.21-.1.21-.29.28-.45s0-.18.1-.23a.21.21 0 00.09-.24.72.72 0 01.17-.53 1.93 1.93 0 00.38-1c0-.09.07-.24.13-.25s.11-.11.16-.17.07-.39.31-.42a1 1 0 01.33-.42 2.81 2.81 0 00.61-.72c.11-.25.4-.07.54-.23a1.13 1.13 0 01.12.18.92.92 0 01.09.28 3.76 3.76 0 010 .48 2.87 2.87 0 01-.29 1.34c-.06.13-.11.26-.16.39-.29.74-.76 1.38-1.1 2.09a.32.32 0 01-.1.1 9.18 9.18 0 00-.91 1.24c-.23.3-.38.68-.76.85 0 0 0 .07-.06.1s-.17.28-.27.4-.21.15-.3.24a1.13 1.13 0 00-.29.38c-.06.15-.18.17-.27.25s-.07.17-.15.06a.24.24 0 01.09-.14zm-11 4.11c-.13.18-.29.34-.41.53s-.29.25-.3.46c-.29.24-.39.64-.78.79-.09 0-.12.2-.2.28a5.35 5.35 0 01-.68.58 3.28 3.28 0 00-.45.37 1.24 1.24 0 01-.18.14c-.14.09-.26.07-.28-.08s-.13-.29 0-.48-.08-.48.11-.7c-.09-.26.12-.44.2-.66s.09-.27.13-.4c.13-.4.36-.76.48-1.15a2.65 2.65 0 01.94-1.17.64.64 0 01.81-.09 1.8 1.8 0 01.56.41 3.11 3.11 0 01.3.67v.05a4.78 4.78 0 01-.26.45zm33.17.64c-.18.17-.32.39-.5.58a4.44 4.44 0 00-.5.56 3.21 3.21 0 01-.7.62c-.07 0-.09.09-.13.13-.31.31-.64.61-1 .89a1 1 0 01-.29.12l-.49-.26c.07-.18-.24-.33 0-.54.05 0 0-.17 0-.26v-.18c.28-.25.16-.64.33-.93a5.14 5.14 0 00.33-.88c.07-.18.11-.36.17-.53a1 1 0 01.13-.32 6.79 6.79 0 00.66-.93c.1-.13.18-.3.41-.33s.36-.29.6-.32l.4-.1a2.77 2.77 0 01.37.22.51.51 0 01.11.22.61.61 0 01.08.25 1 1 0 00.17.44c.08.16-.12.28-.07.46s0 .31 0 .4c.27.3.13.48-.09.7zm47.43-.73a.49.49 0 01-.19.24c-.29.24-.58.47-.88.69a8.12 8.12 0 00-1.42 1.39v.07c-.3-.06-.31.23-.44.36a4.17 4.17 0 01-.73.48 1.2 1.2 0 01-.58.3c-.27 0-.42 0-.52-.18a1.14 1.14 0 01-.22-.67l.21-1a.26.26 0 01.05-.12 2.51 2.51 0 00.42-.89.64.64 0 01.25-.36 5.47 5.47 0 00.58-.68 2.48 2.48 0 00.27-.39c.08-.14.13-.28.29-.34 0-.2.21-.11.27-.25s.24-.14.3-.25.28-.22.44-.27a2.44 2.44 0 011.27-.28 1.43 1.43 0 01.42.1.5.5 0 01.25.29 4.26 4.26 0 00.15.54.38.38 0 010 .17c-.09.36-.12.71-.2 1.05zM223.82 81.5a1.89 1.89 0 01.11-.67s0-.1-.06-.14a.17.17 0 00-.12 0 1.19 1.19 0 00-.19.2 1.37 1.37 0 01-.73.47.75.75 0 00-.35.26 2.3 2.3 0 01-1 .73c-.07 0-.12.09-.18.14a3.59 3.59 0 00-.38.4c-.08.1-.14.07-.24 0s-.27.09-.4.15a1.31 1.31 0 01-1.58-.28c-.08-.1-.08-.27-.17-.34a.83.83 0 01-.3-.76c0-.22.08-.46-.1-.66a1.26 1.26 0 00.09-.61c0-.13.06-.25.08-.38a1.4 1.4 0 01.07-.39 3.45 3.45 0 00.09-.6 9.36 9.36 0 00.3-1.27c0-.08.07-.17.06-.25a.63.63 0 01.13-.5c.08-.12 0-.28.06-.34s0-.36.16-.5 0-.37.1-.5c.22-.35.24-.77.44-1.12a1.22 1.22 0 01.65-.6c.22-.09.42 0 .42.18s.2.31 0 .48l.08.09c-.23.21-.2.5-.26.77a.52.52 0 01-.09.2.55.55 0 00-.08.38 1.83 1.83 0 01-.19.89c-.08.26-.17.51-.25.77a2.24 2.24 0 00-.18 1c0 .14-.2.29 0 .44-.17.12 0 .33-.15.49s.05.35 0 .49a1.26 1.26 0 00-.06.66 1.09 1.09 0 00.5.81.13.13 0 00.12 0c.11-.16.32 0 .45-.16s.28-.11.36-.21c.28-.32.72-.42 1-.73.26 0 .26-.43.56-.4a5.22 5.22 0 001.41-1.3c.2-.08.26-.3.4-.44s.31-.22.34-.46.23-.28.16-.49c.18-.31.33-.64.52-.94a9 9 0 011-1.12 1 1 0 01.22-.13c.16-.11.41-.1.44-.36a1.74 1.74 0 01.55-.23c.36 0 .7-.15 1.07-.13a3.08 3.08 0 00.8.1c.07 0 .16.13.25.17a1.91 1.91 0 01.36.13c.1.07.15.21.24.31s.3.25.45.38c.1-.15.2-.3.29-.45a4 4 0 00.24-.46c.07-.14.09-.3.27-.35 0 0 .06 0 .07-.06.14-.48.61-.67.91-1a.47.47 0 01.78.22 2.41 2.41 0 010 .38c-.18.22-.16.52-.3.76s-.32.42-.44.65a2.69 2.69 0 00-.34.65c0 .17-.25.26-.21.47a2.21 2.21 0 00-.33.79c-.06.19-.13.38-.17.57s0 .37 0 .49 0 .34-.13.46 0 .18 0 .27v2.09a1.15 1.15 0 010 .32c0 .07-.14.15 0 .21s.16 0 .25 0a1.55 1.55 0 00.44-.32l.38-.35a2.17 2.17 0 01.62-.5c.09 0 .13-.18.21-.25.33-.31.63-.66 1-1s.54-.51.8-.76.54-.53.82-.78.54-.52.82-.76.47-.47.74-.67a2.73 2.73 0 00.42-.52l.42-.47a.61.61 0 01.07-.1c.2-.16.2-.16.12-.4v-.12c.25-.08.2-.32.25-.5s.12-.38.18-.57.11-.38.18-.57c.16-.46.33-.92.49-1.37.07-.22.13-.44.18-.67a10.86 10.86 0 01.43-1.07c0-.13 0-.29.17-.4s.08-.27.13-.4.18-.26.18-.39a2.36 2.36 0 01.36-.92 5.19 5.19 0 01.46-.87 2.89 2.89 0 00.24-.6 6.13 6.13 0 01.52-1 7.69 7.69 0 00.42-.8 2.88 2.88 0 01.53-.76c.16-.16.31-.34.48-.5.35-.34.7-.68 1.07-1a1.61 1.61 0 01.48-.27c.15-.06.34 0 .47-.11s.49-.05.74 0a1.32 1.32 0 01.71.62 1 1 0 01.11 1c-.05.09-.09.14 0 .23a.16.16 0 010 .15.69.69 0 00-.15.61c0 .2-.16.42-.23.63-.12.45-.39.83-.51 1.28a1.64 1.64 0 01-.23.64c0 .07-.08.17-.15.21s-.36.21-.3.48c0 0-.06 0-.09.07s-.34.3-.49.47a.49.49 0 00-.14.31.76.76 0 01-.28.58 4 4 0 00-.44.71 3.8 3.8 0 01-.89 1.07c-.25.17-.37.5-.58.72s-.29.56-.62.68a.43.43 0 00-.19.24 11.59 11.59 0 01-.87 1.12c-.06.08-.2.12-.28.2a1.45 1.45 0 00-.19.29c-.22.34-.45.68-.66 1a.69.69 0 00-.14.43.41.41 0 01-.2.42c-.06 0-.08.15-.11.23s-.06.22-.09.33-.09.13-.09.19a10.63 10.63 0 00-.16 1.69c0 .1 0 .14-.13.14s-.05.07-.05.1a3.22 3.22 0 01-.23 1 .51.51 0 000 .21 2.09 2.09 0 01-.15.82v.08a5.55 5.55 0 01.32.7c0 .13.24.2.38.29s.08 0 .12 0a1.41 1.41 0 01.15-.06c.16.23.32 0 .44 0a1.75 1.75 0 00.55-.33c.34-.24.63-.53 1-.75a5.2 5.2 0 00.84-.85c0-.16.11-.11.17-.16a5.48 5.48 0 01.64-.55 1.36 1.36 0 00.28-.31 12.11 12.11 0 01.9-1.11 4.62 4.62 0 00.37-.5v-.11c.4-.15.49-.59.8-.84a.38.38 0 00.09-.19 4.92 4.92 0 01.48-.87 1.4 1.4 0 00.13-.36 1.78 1.78 0 01.83-1c.09 0 .19-.06.28-.11s.14 0 .19 0a.58.58 0 01.13.65c-.14.29-.08.64-.31.89.1.36-.14.66-.18 1 0 .06 0 .11-.06.16-.1.32-.21.63-.28 1 0 .12 0 .24-.13.32s-.06 0-.06.06c.1.31-.14.53-.18.81a3.15 3.15 0 01-.25.77v.32a.31.31 0 010 .17c-.07.1-.16.17-.15.31s-.1.26-.07.28 0 .21 0 .31a.81.81 0 00.81.68 2.18 2.18 0 00.61-.2c.39-.21.77-.45 1.15-.68a.29.29 0 00.11-.18c0-.15 0-.2.15-.08s.1 0 .15-.07.3-.29.52-.31h.08c.13-.39.56-.48.78-.78a2 2 0 01.51-.32.63.63 0 00.19-.17 1.24 1.24 0 01.39-.4 2.52 2.52 0 00.58-.68 2.68 2.68 0 01.4-.48 3.48 3.48 0 00.58-.69.59.59 0 01.25-.27.28.28 0 00.18-.29s0-.11.05-.11c.21 0 .28-.14.41-.24a3.17 3.17 0 00.34-.28 1.15 1.15 0 01.48-.3q.36-.12.72-.27h.28a.47.47 0 01.35 0 1.33 1.33 0 01.3.18c.12.07.33.1.36.2s.2.19.31.28a.89.89 0 01.38.63 1 1 0 00.3.47h.09a1.79 1.79 0 00.46-.65c.14-.33.39-.61.52-.94s.48-.66.66-1c0-.07.22-.1.23-.17a.32.32 0 01.19-.23.36.36 0 00.1-.11.57.57 0 01.66-.27c.18 0 .23.24.25.38a.84.84 0 01-.15.72c-.26.34-.4.76-.65 1.11a11.48 11.48 0 00-.56 1 1.68 1.68 0 00-.16.39 1.32 1.32 0 01-.24.51 2.12 2.12 0 00-.25.5 1.75 1.75 0 01-.46.88c-.11.08.05.3-.12.4a2.11 2.11 0 01-.19.9c-.1.28-.06.61-.25.86 0 .34-.05.68-.07 1a1.06 1.06 0 00.14.64.82.82 0 01.05.39.74.74 0 00.12.33c.12.22.33.4.37.67a.22.22 0 00.11.14.84.84 0 01.42.32 1.63 1.63 0 001 .52h.12a1.4 1.4 0 00.55 0 2.28 2.28 0 01.37 0 3 3 0 001.71-.59 5.28 5.28 0 001-.87 2.09 2.09 0 01.56-.43 1.93 1.93 0 00.62-.51c.08-.08.19-.2.18-.28 0-.31.21-.39.36-.55a3.76 3.76 0 00.71-1c.06-.13.19-.23.22-.37.15-.51.38-1 .54-1.49v-.3a2.51 2.51 0 010-.27 1.32 1.32 0 01.87-1.11.16.16 0 01.12 0c.12.15.35.22.3.47.17.14.07.37.19.53s0 .22-.08.33a3.41 3.41 0 00-.35 1.33 1.86 1.86 0 01-.38.65.33.33 0 00-.18.28.86.86 0 01-.18.34c-.05.1-.17.21-.16.3 0 .26-.15.37-.28.54s-.39.26-.37.55c0 0-.19-.09-.19.1s-.09.18-.16.26l-.76.89a3.43 3.43 0 01-1.12.85c-.09 0-.18.08-.21.15a2.89 2.89 0 01-1.22 1.08c-.26.15-.44.41-.76.49a1.92 1.92 0 01-.44.1 2.17 2.17 0 00-.42.11s-.07.07-.1.07a1.51 1.51 0 00-.34-.08c-.11 0-.21.11-.32.14s-.18 0-.26 0h-.13a1.83 1.83 0 00-.69-.12.45.45 0 01-.29-.09 3.19 3.19 0 01-.81-.52 1.87 1.87 0 00-.35-.26 1.86 1.86 0 01-.32-.23 1.46 1.46 0 01-.21-.28 4.74 4.74 0 01-.53-.79c-.13-.35-.28-.69-.41-1a1.46 1.46 0 010-.22c0-.15 0-.32-.09-.47a.36.36 0 010-.35.46.46 0 00.07-.35 4.57 4.57 0 01.21-1.38 3.79 3.79 0 01.21-.75c0-.06.09-.24-.08-.26s-.25-.08-.31.15a1.85 1.85 0 01-.31.61 3 3 0 01-.83.74l-.18.12c-.14.08-.17.27-.31.35a.79.79 0 00-.3.37.43.43 0 01-.24.18 1.06 1.06 0 00-.51.33 1.52 1.52 0 01-1.65.2.94.94 0 01-.44-.47c-.15-.36-.42-.72-.2-1.15a.81.81 0 000-.27v-.33c0-.11.09-.23 0-.27s-.24 0-.35.08-.31.34-.53.45c0 0-.07.1-.1.1s-.22.09-.3.18a2.71 2.71 0 01-.73.57 10.59 10.59 0 00-1 .71c-.07 0-.08.17-.21.16a.21.21 0 00-.17.13c0 .22-.17.24-.36.25s-.24.05-.26.11-.17.2-.33.11a.19.19 0 00-.15 0c-.18.19-.46.1-.65.25h-.17c-.05 0-.4-.1-.58-.17a1.42 1.42 0 01-.68-.54 1 1 0 01-.19-.58c0-.12.06-.27-.08-.38a.22.22 0 010-.18c.14-.31.07-.66.2-1a3.58 3.58 0 01.32-.88c-.06-.34.17-.62.18-.94a.65.65 0 000-.13s-.08 0-.09.09a1.69 1.69 0 01-.39.49 2.31 2.31 0 00-.4.53 1.9 1.9 0 01-.48.54 11.25 11.25 0 00-1.36 1.21c-.09.09-.13.24-.23.31a1.2 1.2 0 00-.22.23 2.74 2.74 0 01-.41.34l-.38.3c-.12.09-.24.17-.35.27a1.72 1.72 0 01-.85.52c-.11.17-.34.15-.48.28a.83.83 0 01-.52.19H239a1.28 1.28 0 01-1.07-.42.43.43 0 01-.18-.35c0-.24-.2-.42-.34-.59a1.09 1.09 0 01-.18-1 2.75 2.75 0 000-.64 4.11 4.11 0 01.17-1 9 9 0 00.28-1.27 2.79 2.79 0 00.06-.43s-.05-.12-.07-.12-.18 0-.19.06c-.08.23-.3.34-.44.51a3.51 3.51 0 01-.79.65 2.11 2.11 0 00-.25.16l-1 .93a1.8 1.8 0 00-.2.19 1.74 1.74 0 01-.56.52.63.63 0 00-.29.29 5.1 5.1 0 01-.71.82c-.08.1-.21.06-.28.11a1.37 1.37 0 00-.36.36 1.14 1.14 0 01-.47.4 1.22 1.22 0 00-.68 1.14 1.84 1.84 0 01-.07.9.15.15 0 000 .13c.24.29.06.58 0 .84a.69.69 0 000 .51c.05.13.1.27 0 .37a.4.4 0 00-.12.37.82.82 0 01-.07.43.6.6 0 000 .39v.11c0 .04-.32.3-.28.55a.73.73 0 01-.08.38 7 7 0 00-.25.73c-.05.25-.12.5-.18.75s0 .21-.14.27a.85.85 0 00-.26.51 3.35 3.35 0 01-.57 1.15.55.55 0 00-.09.19c-.12.54-.58.9-.74 1.41-.25.09-.18.42-.41.53a.8.8 0 00-.39.47c-.33.07-.27.49-.55.6 0 0 0 .09-.09.12s-.3.15-.39.28a1.93 1.93 0 01-.33.31c-.15.15-.26.37-.53.38-.07 0-.13.12-.2.19a1.8 1.8 0 01-1.57.55 1.3 1.3 0 01-.53-.19.53.53 0 01-.25-.35 2.73 2.73 0 01-.18-.8s-.08-.11-.08-.16c0-.2-.21-.37 0-.62s0-.33 0-.5a.61.61 0 01.1-.46.35.35 0 00.07-.25 2.49 2.49 0 01.08-.61 1 1 0 01.17-.54c.06-.07 0-.21 0-.3a4.21 4.21 0 01.23-.65 3.3 3.3 0 00.21-.65.8.8 0 01.16-.26 1.41 1.41 0 00.33-.64 1.9 1.9 0 01.31-.58c.13-.21.27-.41.41-.62v-.12c0-.03.25-.2.29-.4s.19-.25.28-.38.14-.29.23-.41.16-.44.38-.6a3.18 3.18 0 00.48-.49c.11-.12.29-.2.25-.41l.08-.11a4.23 4.23 0 01.32-.42c.1-.11.24-.17.32-.32s.26-.2.35-.36a2 2 0 01.35-.37c.13-.15.26-.31.4-.46l.49-.46c.18-.17.34-.36.52-.53a.51.51 0 00.18-.44 12.61 12.61 0 01-.12-1.62c0-.15 0-.29.07-.44a.39.39 0 000-.35.65.65 0 01-.09-.48c0-.16-.08-.34.08-.48a.69.69 0 00-.1-.18c-.07-.08-.14 0-.19 0l-.17.21s-.08.1-.11.1a.25.25 0 00-.28.19c0 .3-.42.35-.46.64-.3.34-.59.68-.9 1-.11.11-.27.19-.38.3s-.22.32-.36.46c-.34.34-.7.66-1.06 1a.23.23 0 01-.16.06c-.13 0-.27 0-.38.1a.15.15 0 01-.13 0 5.77 5.77 0 01-.86-.28 2.11 2.11 0 01-.5-.56v-.08c-.08-.26-.13-.53-.17-.81zm.58 12.86c0 .24.06.6.11 1a.3.3 0 00.41.26 5 5 0 01.79-.42c.07-.23.37-.23.45-.41s.34-.28.48-.44.3-.31.44-.47.23-.39.4-.47.22-.33.33-.48.4-.44.37-.77c0 0 0-.11.08-.15a1.27 1.27 0 00.28-.44 9 9 0 00.39-.9c.21-.58.44-1.14.66-1.72a2.66 2.66 0 00.18-.61c0-.23.12-.45.16-.68a4.49 4.49 0 01.11-.82c-.14-.1 0-.23 0-.29a.47.47 0 00.08-.34 1.53 1.53 0 010-.37c0-.12-.14-.19 0-.31s-.11-.11 0-.2 0-.2 0-.31a1.22 1.22 0 000-.27v-.12a.17.17 0 00-.12 0c-.19.23-.47.39-.59.69a.46.46 0 01-.19.2 1.86 1.86 0 00-.79.87 1.06 1.06 0 01-.16.21c-.27.31-.56.6-.8.93a3.07 3.07 0 00-.33.45 1.16 1.16 0 01-.29.4.72.72 0 00-.34.54c0 .16-.19.29-.16.48-.16.07-.2.27-.34.36s-.11.24-.27.32-.13.27-.16.42 0 .17-.07.27a1.84 1.84 0 00-.31.52 3.73 3.73 0 00-.28.66c-.06.29-.14.57-.19.85a1.82 1.82 0 01-.12.64 1.72 1.72 0 00-.21.92zm21.42-30.5a1.31 1.31 0 010-.28c0-.17-.11-.14-.18-.19a1.78 1.78 0 00-.47.09c-.12.29-.45.37-.62.62a3.48 3.48 0 01-.41.52 3.63 3.63 0 00-.67 1 2.39 2.39 0 01-.28.49 1 1 0 00-.28.48.94.94 0 01-.28.53 1.61 1.61 0 00-.27.54 1.73 1.73 0 01-.32.75v.12c0 .04 0 .29-.1.37-.21.23-.09.59-.35.79 0 .27-.14.46-.23.68a2 2 0 00-.12.46 2.34 2.34 0 01-.38 1 3.48 3.48 0 00-.2.38c-.07.12.1.16.06.26s.13-.06.16-.11.11-.24.19-.34.21-.15.29-.25a3.86 3.86 0 01.3-.38c.12-.1.13-.27.3-.34s.24-.24.36-.36.33-.39.53-.57a1.16 1.16 0 00.44-.69.63.63 0 01.15-.26l.64-1a2.43 2.43 0 01.26-.44c.24-.25.3-.62.6-.82a.2.2 0 000-.08 10.82 10.82 0 01.58-1.56 9.22 9.22 0 00.3-1.41zm-20.54 16.85c.15.11.13.29.14.47s.1.35.24.39.26-.11.38-.19a3.17 3.17 0 00.39-.34c.1-.1.17-.24.28-.34s.28-.21.4-.34c.31-.33.62-.67.9-1a1.5 1.5 0 01.34-.37 1.21 1.21 0 00.27-.35c.09-.13.16-.27.35-.26l.06-.06.81-.83c.08-.09.09-.16 0-.23a.64.64 0 01-.29-.42c0-.33-.33-.41-.53-.56s-.4-.3-.69-.19a3.46 3.46 0 01-.48.07 1.58 1.58 0 00-.85.5c-.43.11-.4.61-.7.82v.09a1 1 0 01-.09.34c-.15.26-.13.59-.35.82a1 1 0 01-.13.55c-.07.17 0 .4-.22.51v.13c0 .2-.1.37-.12.56a1.57 1.57 0 01-.11.23zm27.95.2a.42.42 0 00.22 0 2.26 2.26 0 00.8-.52.83.83 0 01.3-.29c.15-.06.14-.24.27-.31a3.71 3.71 0 00.32-.23.43.43 0 00.27-.26c.07-.18.26-.31.39-.48a1.6 1.6 0 01.38-.45 1.6 1.6 0 00.36-.54v-.1a8.16 8.16 0 00-.53-1.12c-.11-.26-.42-.35-.69-.41s-.32.16-.48.17a.43.43 0 00-.36.24 1.13 1.13 0 01-.3.38 2.45 2.45 0 00-.31.34c-.09.13-.07.32-.23.41a1 1 0 01-.21.65c-.17.21-.14.48-.33.66a.14.14 0 000 .09c.11.07.07.12 0 .2a.46.46 0 00-.09.2c-.05.19-.08.39-.14.58s-.11.22-.08.25 0 .24.06.35.15.19.38.19zm-50.37-6.66c0 .11 0 .23-.05.34s0 .21-.05.32 0 .29 0 .36a1.23 1.23 0 00-.18.81c0 .07-.06.13-.09.2a.61.61 0 00-.1.33 2.07 2.07 0 01-.2.84s-.08.08-.07.11c.05.24-.1.46-.09.7a3.4 3.4 0 01-.19 1c0 .12-.2.28 0 .43a.63.63 0 00-.08.15v.12h.07c.21-.26.53-.4.66-.74.05-.13.21-.22.32-.33s.39-.53.61-.76.54-.71.89-1a4.49 4.49 0 001-1c.06-.09.2-.12.28-.2s.32-.16.36-.35a5.1 5.1 0 00.88-.57c.24-.14.52-.22.76-.39s.3 0 .39.13.44.25.48.53c.32.17.28.47.28.76s.18.29 0 .49 0 .34-.07.47 0 .34-.1.52a1.55 1.55 0 00-.12.69.35.35 0 01-.13.27c-.12.09 0 .12 0 .16s.12.07.17 0a5.62 5.62 0 01.93-1.19c.18-.18.29-.42.47-.59s.31-.46.6-.58a1 1 0 00.45-.45 1 1 0 01.37-.35c.16-.1.29-.26.45-.37a4.2 4.2 0 00.49-.37 1.32 1.32 0 01.25-.16c.15-.09.3-.17.45-.27s.33-.19.41-.23.38 0 .5-.1.46 0 .63-.17l.42.11a5 5 0 01.82.36.18.18 0 01.09.08 4.62 4.62 0 00.28.48 2.72 2.72 0 01.27.77 1.57 1.57 0 01.09.43v.46c0 .16 0 .24.09.33-.11.07-.1.18-.09.29s0 .23.07.34 0 .15 0 .22-.15.11-.05.22.06.19 0 .2 0 .32-.14.46-.25.33 0 .51a1.35 1.35 0 01-.11.55c-.14.2 0 .43-.15.64s0 .41-.13.54-.05.34-.15.5-.21.52-.35.78a3.65 3.65 0 00-.32.93.9.9 0 01-.22.42 1.87 1.87 0 00-.2.29c-.14.23-.17.54-.42.7a3.19 3.19 0 01-.75 1.13c-.2.26-.4.51-.59.78s-.23.32-.34.49a4.6 4.6 0 01-.41.47 1.14 1.14 0 01-.7.39c-.2 0-.35.14-.35.29s-.12.19-.21.23-.34.27-.6.24a.54.54 0 01-.47-.74 3.44 3.44 0 011.37-1.36 4.72 4.72 0 00.82-.85s.05-.13.09-.14c.29-.09.32-.42.55-.56l.29-.52c.19-.29.36-.59.57-.87a2.47 2.47 0 00.29-.53 7.08 7.08 0 01.44-1.07 2.41 2.41 0 00.19-.61c.06-.23.25-.41.19-.67.2-.16 0-.45.19-.61a7.93 7.93 0 01.1-1 5.29 5.29 0 00.09-1.12c.2-.19 0-.38 0-.57a1.33 1.33 0 00-.08-.62c-.09-.17 0-.43-.11-.59s-.26-.45-.57-.46-.38-.07-.57-.09-.15 0-.18 0c-.19.22-.48.19-.7.32a6.52 6.52 0 00-.59.48 1.57 1.57 0 01-.24.21 2.54 2.54 0 00-.38.16 2.6 2.6 0 00-.25.31 1.66 1.66 0 01-.43.41c-.18.09-.2.27-.35.38a1.11 1.11 0 00-.37.48.65.65 0 01-.16.22 3.68 3.68 0 00-.69.87.16.16 0 01-.09.09c-.37.16-.52.51-.73.81-.06.08-.15.15-.22.23a1.33 1.33 0 00-.24.36 2.15 2.15 0 01-.61 1.05 2.58 2.58 0 00-.33.41 3.51 3.51 0 00-.27.4c-.1.19-.25.35-.34.55a.52.52 0 01-.83 0 1.51 1.51 0 010-.52 1.79 1.79 0 00.16-.44c0-.13-.06-.28 0-.4a4 4 0 01.41-1.45.62.62 0 00.14-.45c0-.1.05-.16.09-.24.14-.35.3-.68.41-1a.77.77 0 00.06-.3.5.5 0 01.1-.37.48.48 0 00.09-.38c-.05-.28.1-.52.11-.79.19-.12 0-.25 0-.34s-.2-.21-.33 0a5.53 5.53 0 01-1.29 1c-.08.05-.19.12-.19.19 0 .26-.22.34-.39.49a6.74 6.74 0 00-.78.82c-.2.24-.36.5-.55.74a4.93 4.93 0 00-.58.78.45.45 0 01-.23.22c-.23 0-.29.25-.38.4a1.89 1.89 0 01-.47.54c-.25.17-.31.51-.61.62v.13a1.2 1.2 0 01-.51.8.72.72 0 01-1 0c-.16-.18-.17-.24-.07-.48a3.1 3.1 0 00.31-1.3 1.7 1.7 0 01.24-.78c.11-.24-.07-.44 0-.64h-.12c-.01 0-.08.16-.15.21-.38.29-.58.74-.93 1-.06 0-.27.1-.09.25a2.49 2.49 0 00-.31.23c-.08.09-.13.2-.2.29a.85.85 0 01-.17.16 4.3 4.3 0 00-.75.84 4.15 4.15 0 01-1.14.94 3.85 3.85 0 01-1.85.55.49.49 0 01-.28-.11c-.21-.17-.43-.31-.64-.47a.29.29 0 01-.1-.09l-.45-.83a.65.65 0 010-.13 1.27 1.27 0 00-.08-.61.36.36 0 010-.32.41.41 0 000-.45.26.26 0 010-.24 1.22 1.22 0 00.14-.59c0-.19.07-.38.08-.57a.44.44 0 000-.35s.09-.18.13-.28 0-.07-.06-.09a.13.13 0 00-.1 0 .8.8 0 00-.13.13c-.09.1-.08.29-.29.29s-.08.31-.29.29c-.18.3-.48.5-.68.78a2.13 2.13 0 01-.69.68c-.05 0-.11.08-.13.13a2.66 2.66 0 01-1.12 1 1.13 1.13 0 00-.18.12 1.92 1.92 0 01-1 .34.41.41 0 01-.19 0c-.18-.08-.45.18-.58-.15s-.31-.33-.26-.59a3.43 3.43 0 01-.26-1 1 1 0 01.06-.71c.09-.19 0-.44.11-.64a10.38 10.38 0 01.75-2.51c0-.11.09-.21.14-.32a3.11 3.11 0 011-1.11 4 4 0 01.88-.64 4.13 4.13 0 01.81-.29.47.47 0 00.17 0 1.23 1.23 0 01.76 0 2.14 2.14 0 01.81.41 6.55 6.55 0 01.53.39 1.36 1.36 0 01.32.47 2.24 2.24 0 00.13.27 1.21 1.21 0 00.2-.19 1.71 1.71 0 00.3-.52 3.91 3.91 0 01.26-.59c.05-.14.16-.25.13-.41s0-.11.07-.16a3.08 3.08 0 01.72-1 .53.53 0 01.5-.06.4.4 0 01.18.48c-.21.37-.18.81-.35 1.19a3.43 3.43 0 00-.22.56 2.31 2.31 0 01-.33.93c-.1.12 0 .33-.1.51a4.32 4.32 0 00-.11.88c0 .24-.16.46-.09.71-.33.31-.16.79-.38 1.14.06.57-.13 1.11-.1 1.68a.28.28 0 00.11.23s.08.07.07.11c0 .5.49.46.74.67a.15.15 0 00.13 0c.18-.18.47-.15.65-.34a1.87 1.87 0 01.55-.36 1.55 1.55 0 00.56-.55 5.17 5.17 0 01.61-.72c.38-.41.76-.81 1.13-1.23.13-.14.18-.33.31-.47.35-.36.55-.84.91-1.2 0 0 .05-.1.08-.15a2.22 2.22 0 01.65-.84.83.83 0 00.27-.58 2.86 2.86 0 01.1-.42 1.5 1.5 0 00.1-.56 4.08 4.08 0 01.09-.61c.21-.12.24-.41.47-.52s.16-.15.25-.17a.85.85 0 01.45 0c-.11-.25-.13-.05-.11.08zm-11.55 2.17a1.29 1.29 0 00-.37.11c-.15.1-.37.09-.49.26a1.06 1.06 0 00-.7.64 4.8 4.8 0 00-.49 1.22v.4a4.08 4.08 0 00-.29.94A1.46 1.46 0 00189 81a.21.21 0 00.11.1c.09 0 .2.07.26 0s.33 0 .45-.15a.93.93 0 01.36-.25c.16-.07.16-.27.31-.34s.13-.27.32-.33a.81.81 0 00.36-.35 2.12 2.12 0 01.6-.66c.15-.12.25-.28.38-.4s.23-.31.37-.45a.32.32 0 00.07-.4.34.34 0 010-.42v-.09a.61.61 0 00-.34-.51 1.44 1.44 0 00-.94-.33zm89.62-9.8a1.58 1.58 0 00.16.87c0 .08-.06.22 0 .31s.17.25.14.3 0 .31 0 .43a1.09 1.09 0 00.34.66c.11.08.15.3.19.46a1.65 1.65 0 00.4.76c.09.11.23.23.24.35a.44.44 0 00.19.35 5 5 0 01.82 1c.08.12.11.29.3.36s.19.21.28.32.33.26.39.48c.29.1.35.46.63.58a.2.2 0 01.08 0c.06.11.13.22.19.34a3 3 0 00.59.82.54.54 0 01.15.21 3.21 3.21 0 00.26.63c.12.18.13.42.34.57s.1.29.14.44.1.28.05.35.18.25 0 .33a.86.86 0 01-.11.86v.12c0 .04.08.18.06.25a5.63 5.63 0 00-.19 1.22.67.67 0 01-.11.37c-.23.32-.35.69-.56 1a5.57 5.57 0 01-.74.94 7.63 7.63 0 01-1.34 1.14 2.08 2.08 0 01-1 .36 1 1 0 00-.29.08c-.14 0-.27.19-.44 0a.18.18 0 00-.27.08c-.1.19-.25.13-.4.09s-.28-.11-.36-.06-.22-.11-.36 0-.25 0-.37-.08-.48-.19-.73-.26a2.2 2.2 0 01-1.08-.84 1.42 1.42 0 01-.28-.62 6.23 6.23 0 00-.32-.88 1.06 1.06 0 01-.05-.89 1.37 1.37 0 000-.64.3.3 0 01.11-.28s.08-.07.07-.1c0-.36.3-.53.45-.78a1.29 1.29 0 01.16-.17c.06.16.26 0 .31.14s.34.25.3.51.11.46.1.71a1 1 0 00.06.71c-.15.36.25.6.21.94a2.79 2.79 0 00.49.58 4 4 0 00.82.36c.08 0 .2-.14.29 0 .1-.06.18.2.29 0 .3.21.6.07.89 0a3.56 3.56 0 001.34-.46s.12 0 .15-.07a2.63 2.63 0 01.35-.39.81.81 0 00.31-.35c.08-.17.32-.23.35-.45a1 1 0 00.35-.78 2.87 2.87 0 000-1.51c.21-.24-.08-.46 0-.7s-.24-.37-.19-.61a10.53 10.53 0 00-1-1.61c-.19-.45-.62-.71-.86-1.13-.21-.08-.3-.3-.45-.44s-.15-.26-.31-.34-.19-.22-.27-.35-.15-.27-.23-.41-.11-.1-.16-.16a2.72 2.72 0 01-.51-.63c-.08-.19-.29-.2-.35-.4a1.83 1.83 0 00-.25-.45c-.12-.18-.15-.42-.36-.55.08-.26-.22-.4-.21-.65a.41.41 0 00-.09-.19s-.09-.08-.08-.1a1.39 1.39 0 00-.19-.72c.16-.09 0-.19 0-.29a4.14 4.14 0 00-.1-.93 5.77 5.77 0 01-.08-1.31.68.68 0 01.09-.42c.08-.14.05-.31.14-.47a3.08 3.08 0 00.16-.54c.09-.27.19-.53.29-.8.15-.42.37-.81.52-1.22a3.72 3.72 0 01.59-.82 3.77 3.77 0 011.18-1.15s.08-.06.09-.1c.12-.31.4-.4.65-.55s.32-.27.49-.39a.82.82 0 01.44-.17 1.66 1.66 0 00.64-.1 1.42 1.42 0 01.76-.06h.16c.21 0 .41-.21.61 0a1 1 0 01.59.16 6.18 6.18 0 00.65.21c.2.08.38.19.58.28a1.9 1.9 0 01.55.21 4.52 4.52 0 01.86.94c.1.15.19.32.3.47s.12.36.26.5a.45.45 0 01.1.28 3.2 3.2 0 00.16.68 1.94 1.94 0 010 .54c0 .12.13.2 0 .35s-.22.42-.42.55-.3.08-.35.26-.14 0-.21 0a.73.73 0 01-.48-.3.26.26 0 010-.21c.16-.19 0-.41.07-.62s-.21 0-.18-.19a2.14 2.14 0 00-.07-.43 2 2 0 00-.41-.8c-.12-.21-.33-.34-.47-.55s-.36-.22-.55-.32a1.62 1.62 0 00-.81-.29 1.59 1.59 0 01-.55-.22h-.12a6.61 6.61 0 00-1.53.11c-.08.18-.32 0-.41.18s-.21.18-.32.28a2.76 2.76 0 01-.3.29 1.44 1.44 0 01-.31.13c-.05 0-.12 0-.15.07s0 .39-.29.48-.22.3-.3.47-.36.49-.5.76-.37.69-.54 1a.5.5 0 00-.05.21.78.78 0 010 .22c0 .11-.15.21-.15.31s-.1.27-.1.42zM176.55 76.5c-.25 0-.53.06-.81-.09s-.38.12-.56.08-.31-.17-.49 0-.26-.08-.41-.09c0-.12-.24-.22 0-.38v-.08c-.08-.38.3-.55.37-.86.21-.07.37-.26.6-.23.4 0 .82-.11 1.21.08.08-.11.15-.07.26 0 .32.18.63 0 .94-.08.06 0 .11-.14.13-.22s-.06-.36.07-.53 0-.32.09-.47-.05-.36.12-.5a4.54 4.54 0 01.27-1.46c.05-.24.13-.48.16-.72a5.49 5.49 0 01.35-1.06 1.73 1.73 0 01.3-.72 2.22 2.22 0 00.26-.71 4.31 4.31 0 00.26-.74c0-.21.22-.4.35-.59a3.47 3.47 0 01.29-.38c.12-.14.08-.34.25-.46a.72.72 0 00.32-.38c0-.09.18-.14.26-.22s.14-.25.21-.25.14-.36.38-.3c.11-.15.3-.22.33-.42l1.26-1a2.08 2.08 0 00.29-.19c.19-.18.46-.16.68-.28a1.68 1.68 0 01.66-.19 3.85 3.85 0 00.47-.08c.15 0 .3 0 .43-.09a.22.22 0 01.17 0 .37.37 0 00.38 0 .74.74 0 01.25 0c.16 0 .35.12.46.06a.9.9 0 01.48-.06c.11 0 .25 0 .34.08.23 0 .41.14.61.18s.41 0 .61.1a9.56 9.56 0 011.44.56h.07c0 .25.29.2.35.36s.15.24 0 .43a3.35 3.35 0 00-.21.47.39.39 0 01-.41.28l-.49-.09c-.18 0-.33-.16-.52-.21a6.58 6.58 0 01-.82-.36.78.78 0 00-.33-.09.86.86 0 01-.63-.17c-.09-.06-.27-.25-.43 0-.14 0-.3-.11-.41-.06a2.08 2.08 0 01-1 .06c-.16 0-.32.18-.48 0a3.94 3.94 0 01-.48.18 2.89 2.89 0 00-.51.11c-.19.09-.33.29-.58.26-.05.27-.34.31-.49.48a7.38 7.38 0 01-.62.63 2.35 2.35 0 01-.32.23.41.41 0 00-.23.22c0 .08-.15.14-.23.2l-.38.33c.1.28-.17.39-.27.58a1.47 1.47 0 00-.27.62c0 .23-.24.3-.21.53s-.11.32-.23.45 0 .11 0 .17a1.84 1.84 0 01-.09.28 6.72 6.72 0 00-.56 1.63 6.13 6.13 0 01-.28 1.27c.1.36-.15.65-.19 1 0 .13-.14.24-.21.37s-.06.13 0 .15c.16.19.06.42.06.62s.11.17.19.19a.81.81 0 00.4 0c.1 0 .18-.08.29-.08a8.53 8.53 0 011.34 0 6.09 6.09 0 00.85.07 5.61 5.61 0 011.35.09.58.58 0 00.45 0 1.59 1.59 0 011.33-.08 2 2 0 00.42.09 6 6 0 01.61.09l.56.09a.54.54 0 01.28.51 1.74 1.74 0 01-.66.92c-.13.06-.31.27-.5 0-.29 0-.55-.13-.84-.1a1.72 1.72 0 01-.71-.06.53.53 0 00-.56.06c-.15-.08-.29 0-.43 0s-.34-.07-.48.06a.08.08 0 01-.07 0c-.13-.21-.35-.15-.54-.15h-.74c-.11 0-.24 0-.34-.07a.2.2 0 00-.21 0c-.18.14-.38 0-.57.07-.27-.23-.54 0-.81 0-.09.15-.25.08-.37.09-.36 0-.49.18-.61.52s0 .7-.25 1c-.06.1 0 .27 0 .41a3 3 0 01-.18 1.36.8.8 0 000 .41.9.9 0 01-.1.51s-.07 0 0 .14a2.16 2.16 0 01-.07 1.18.76.76 0 00-.06.2c0 .48-.35.69-.69.91a.33.33 0 01-.25 0 2.51 2.51 0 01-.41-.32c-.05 0-.07-.18 0-.21s0-.24.07-.36a.92.92 0 000-.41v-.46a1 1 0 01.08-.52 1.28 1.28 0 00.11-.61 1.25 1.25 0 01.07-.66c.1-.18-.06-.41.1-.61s0-.24 0-.36a1.27 1.27 0 01.12-.6 3.38 3.38 0 00.11-.57 3.23 3.23 0 00.14-.87.22.22 0 00-.22-.23c-.34.11-.58.12-.84.12zm71.89-7.76c-.06-.18.06-.28.16-.39a3.66 3.66 0 01.64-.55c.23-.1.31-.09.47.07l.39.39a.46.46 0 01.08.67 1.31 1.31 0 01-.63.6c-.08 0-.18.08-.24 0-.24-.12-.47-.27-.7-.41a.36.36 0 01-.17-.38zm-27.08-.3a1.13 1.13 0 01.13-.32 1.41 1.41 0 011-.66h.14s.09.07.09.1c0 .23.26.22.33.41a.55.55 0 01-.16.7c-.2.18-.28.48-.6.54H222c-.14-.22-.5-.21-.56-.52a1.06 1.06 0 00-.08-.25z"/></g></g></svg>