<svg xmlns="http://www.w3.org/2000/svg" id="Livello_1" x="0" y="0" version="1.1" viewBox="0 0 250 250" xml:space="preserve" fill="#8AADAC" class="iconservice">
  <defs/>
  <path d="M178.1 96.3c-5 0-9.7.9-14.2 2.4-7-13.7-13.8-27.6-17.5-36.2l16-6.2-3.4-8.7-24.7 9.5 1.6 4.3c1.7 4.5 5 11.8 9.1 20.2l-51.4.1-2.7-12.9h10.7v-9.3H62.7v9.3h18.7l3.1 14.6-17.2 19.8C60.5 99 52.5 96.4 44 96.4 20.2 96.4.8 115.8.8 139.6c0 23.8 19.4 43.2 43.2 43.2 21.6 0 39.6-16 42.7-36.8h18.6v-.1l45.2-53c1.6 3.3 3.3 6.6 5 9.9-12.3 7.6-20.6 21.2-20.6 36.8 0 23.8 19.4 43.2 43.2 43.2 23.8 0 43.2-19.4 43.2-43.2 0-23.9-19.4-43.3-43.2-43.3zM44 173.5c-18.7 0-33.9-15.2-33.9-33.9s15.2-33.9 33.9-33.9c6.2 0 12.1 1.7 17.1 4.7l-22.8 26.4h-.2v9.3l39.1-.1c-3 15.6-16.8 27.5-33.2 27.5zm6.6-36.8l17.8-20.5c5.2 5.4 8.6 12.6 9.3 20.5H50.6zm36.4 0c-.7-10.7-5.4-20.4-12.5-27.6l12.3-14.2 8.8 41.8H87zm17.3-4l-8.8-41.6 44.3-.1-35.5 41.7zm73.8 40.7c-18.7 0-33.9-15.2-33.9-33.9 0-11.9 6.2-22.4 15.5-28.4 8.7 17 16.6 31.7 17.2 33l8.2-4.4c-.2-.3-8.1-15.2-17-32.6 3.1-1 6.5-1.5 9.9-1.5 18.7 0 33.9 15.2 33.9 33.9s-15.2 33.9-33.8 33.9zM247.2 100l-16.8-19.8c-.9-1.1-2-1.9-3.1-2.4l.9-.8c1.3-1.1 1.4-3 .4-4.3l-.9-1.1c-1.1-1.3-3-1.4-4.3-.4l-5.2 4.4-14.5-17.2.1-.1-1.8-6.5-7.9-1.3-.4.3-.8.7-.4.3v8l6.2 2.8.1-.1-.1.1 14.5 17.2-5.4 4.6c-1.3 1.1-1.4 3-.4 4.3l.9 1.1c1.1 1.3 3 1.4 4.3.4l1.1-1c.4 1.3 1 2.4 1.9 3.5l16.8 19.8c1.9 2.3 4.6 3.4 7.4 3.4 2.2 0 4.4-.7 6.2-2.3 4.2-3.4 4.7-9.5 1.2-13.6z" class="st0"/>
</svg>
