<svg xmlns="http://www.w3.org/2000/svg" viewBox="0 0 250 250" fill="#8AADAC" class="iconservice">
  <defs/>
  <path d="M236.6 208.3h-5.3c-.1 0-12.7-.1-23.9-6.8-7.4-4.4-11.6-11.3-15.9-18.6-4.3-7.1-8.7-14.4-16.4-19.7-11.7-8.1-24.3-9.5-31.5-9.6V74.8h18.1L87.3 1 12.8 74.8h18.1v120.4h10.3v49.6h10.5v-22.2h71.8v22.2H134v-49.6h3c7.6.7 14.9 3.2 21.2 7.5 5.8 4 9.5 10.1 13.3 16.5 4.6 7.7 9.9 16.4 19.5 22.1 13.5 8.1 42.5 8.3 45.7 8.3l-.1-5.3v-36zm-113.1 3.8H51.7v-16.9h71.8v16.9zm9.7-27.7c-2 0-4 0-6 .2H41.4v-20.3h91.9l-.1 20.1zm-71.9-47c.5-14.4 12.5-25.7 26.9-25.2 13.7.5 24.7 11.4 25.2 25.1v16.6H61.3v-16.5zm71.9 16.5h-9.3v-17c-.8-20.2-17.8-35.9-38-35.1-19.1.8-34.4 16.1-35.1 35.2v16.8h-9.5v-79h91.9v79.1zM38.3 64.3l49-48.5 49 48.5h-98zm187.8 174.4c-9.9-.7-23.1-2.5-29.7-6.5-7.4-4.4-11.6-11.3-15.9-18.6-4.3-7.1-8.7-14.4-16.4-19.7-6.1-4.2-13.1-7-20.4-8.4v-21.4c5.8.1 16.2 1.2 25.5 7.7 5.8 4 9.5 10.1 13.4 16.5 4.6 7.7 9.9 16.4 19.5 22.1 7.4 4.3 15.5 7 24 8v20.3z"/>
</svg>
