<svg xmlns="http://www.w3.org/2000/svg" id="Livello_1" x="0" y="0" version="1.1" viewBox="0 0 250 250" xml:space="preserve" fill="#8AADAC" class="iconservice">
  <defs/>
  <path d="M240.7.7H9.2C4.5.7.6 4.6.6 9.3v231.5c0 4.7 3.9 8.6 8.6 8.6h231.5c4.7 0 8.6-3.9 8.6-8.6V9.3c0-4.8-3.8-8.6-8.6-8.6zm-1.8 238.2H11.1V11.1h227.8v227.8z" class="st0"/>
  <path d="M112.7 162.3h14.2c21.4 0 39.4-5.5 52.1-15.9 13.4-11 20.4-27.2 20.4-46.9s-7.1-35.9-20.4-46.9c-12.6-10.4-30.6-15.8-52.1-15.8h-62V222h47.9v-59.7zm-10.4 49.3h-27V47.3h51.6c39.4 0 62 19.1 62 52.3s-22.6 52.3-62 52.3h-24.7v59.7z" class="st0"/>
  <path d="M161.5 99.5c0-19.4-12.9-31.5-33.6-31.5h-25.6v62.7h26.6c20.1.1 32.6-11.9 32.6-31.2zm-48.8-20.9h15.2c8.6 0 23.2 2.7 23.2 21 0 17.1-12.1 20.7-22.2 20.7h-16.1V78.6z" class="st0"/>
</svg>
