<svg xmlns="http://www.w3.org/2000/svg" viewBox="0 0 250 250" fill="#8AADAC" class="iconservice">
  <defs/>
  <path d="M10 72.3v176.9h230.2V72.3H10zm219.8 166.6H20.4v-49.6h209.4v49.6zm0-60.1H20.4V82.7h209.4v96.1zM60.2 40.1c7-7.8 6.8-22.6-9.1-33 0 0 7.4 14.4-1.7 26s9.3 30.3 9.3 30.3-5.5-15.5 1.5-23.3zM89.5 33.9c7-7.8 6.8-22.5-9.1-33 0 0 7.4 14.4-1.7 26S88 57.3 88 57.3s-5.5-15.6 1.5-23.4zM120.3 41.1c7-7.8 6.8-22.5-9.1-33 0 0 7.4 14.4-1.7 26s9.4 30.3 9.4 30.3-5.5-15.5 1.4-23.3z"/>
  <path d="M81.6 169.5c31 0 55.2-16.7 55.2-37.9s-24.2-37.9-55.2-37.9-55.2 16.7-55.2 37.9 24.2 37.9 55.2 37.9zm0-65.4c24.3 0 44.8 12.6 44.8 27.5s-20.5 27.5-44.8 27.5-44.8-12.6-44.8-27.5 20.5-27.5 44.8-27.5z"/>
  <path d="M81.6 153.6c17.3 0 30.8-9.7 30.8-22s-13.5-22-30.8-22-30.8 9.7-30.8 22 13.5 22 30.8 22zm0-33.6c12.1 0 20.4 6.1 20.4 11.6s-8.4 11.6-20.4 11.6-20.4-6.1-20.4-11.6c-.1-5.5 8.3-11.6 20.4-11.6zM81.6 231.4c9.4 0 17-7.6 17-17s-7.6-17-17-17-17 7.6-17 17c-.1 9.4 7.6 17 17 17zm0-23.7c3.7 0 6.6 3 6.6 6.6s-3 6.6-6.6 6.6-6.6-3-6.6-6.6c-.1-3.6 2.9-6.6 6.6-6.6zM188.5 231.4c9.4 0 17-7.6 17-17.1s-7.6-17-17.1-17c-9.4 0-17 7.6-17 17 0 9.5 7.6 17.1 17.1 17.1zm0-23.7c3.7 0 6.6 3 6.6 6.7s-3 6.6-6.7 6.6-6.6-3-6.6-6.6c0-3.7 3-6.7 6.7-6.7zM188.5 155.6c15.7 0 28.1-8.9 28.1-20.2s-12.3-20.2-28.1-20.2-28.1 8.9-28.1 20.2 12.3 20.2 28.1 20.2zm0-30c10.4 0 17.7 5.2 17.7 9.8s-7.3 9.8-17.7 9.8-17.7-5.1-17.7-9.8 7.2-9.8 17.7-9.8zM192.9 41.1c7-7.8 6.8-22.5-9.1-33 0 0 7.4 14.4-1.7 26s9.4 30.3 9.4 30.3-5.6-15.5 1.4-23.3z"/>
</svg>
