<svg xmlns="http://www.w3.org/2000/svg" viewBox="0 0 250 250" fill="#8AADAC" class="iconservice">
  <defs/>
  <path d="M238.2 125.2c-1.5-1.5-3.1-2.8-4.7-4 16.1-34.2 11-72.8-13-96.8-32.7-32.7-89.7-29-127 8.3-31.5 31.5-39 76.9-21 110L.9 203.2 41.7 244l59.9-72c11.9 6.6 25.5 10 39.6 10 4.5 0 9.1-.4 13.8-1.1l.3.3.4-.4c8.8-1.4 17.7-4.1 26.4-8.2 1.2 1.7 2.5 3.2 4 4.7 7 7 16.3 10.8 26.1 10.8s19.1-3.8 26.1-10.8c14.3-14.3 14.3-37.7-.1-52.1zM40.9 226.6L18.2 204l60.1-50.8 12.9 12.9-50.3 60.5zm52.6-75.2C80.1 138 74 119.7 74.7 100.7l69.5 69.5c-19.3.7-37.5-5.7-50.7-18.8zm65.4 16.9L76.6 86c3.6-16.1 12-31.9 25.2-45C134.5 8.3 184 4.6 212.1 32.7c20.4 20.4 24.6 53.5 10.8 83.2-3.5-1.1-7.1-1.6-10.8-1.6-9.9 0-19.1 3.8-26.1 10.8-10 10-13 24.3-9.2 36.9-5.9 2.9-11.9 4.9-17.9 6.3zm71 .8c-4.8 4.8-11.1 7.4-17.8 7.4-6.7 0-13-2.6-17.8-7.4-9.8-9.8-9.8-25.8 0-35.6 4.8-4.8 11.1-7.4 17.8-7.4 6.7 0 13 2.6 17.8 7.4 9.8 9.8 9.8 25.8 0 35.6z"/>
</svg>
