<svg xmlns="http://www.w3.org/2000/svg" viewBox="0 0 250 250" fill="#8AADAC" class="iconservice">
  <defs/>
  <path d="M51.7 162c-.2-5.7-.3-13.6-.2-22.6h85.8c-.2 12.9.1 21.9.2 23.1l11.5-.5c-1.1-27.2.5-102.6 21.2-124.1 3.5-3.7 7.3-5.4 11.6-5.4 30.5 0 30.8 50.4 30.8 50.9H224c0-1.4-.1-34.9-17.4-52.2-6.5-6.7-15.5-10.4-24.9-10.2-7.5 0-14.1 3-19.8 9-12.4 12.9-18.7 39.3-21.8 65.1H54.5C57.4 71.2 63 48.3 72.9 38c3.5-3.7 7.3-5.4 11.6-5.4 30.5 0 30.8 50.4 30.8 50.9h11.5c0-1.4-.1-34.9-17.4-52.2-6.5-6.7-15.5-10.4-24.9-10.2-7.5 0-14.1 3-19.8 9-28.3 29.3-24.6 128.2-24.4 132.4l11.4-.5zm87.3-55.5c-.7 7.5-1.1 14.8-1.3 21.4H51.9c.3-6.9.7-14.1 1.4-21.4H139zM49.7 195c14.2 0 21.5-5.6 27.9-10.6 5.7-4.4 10.7-8.2 20.9-8.2s15.2 3.8 20.9 8.2c6.5 5 13.7 10.6 27.9 10.6s21.5-5.6 27.9-10.6c5.7-4.4 10.7-8.2 20.9-8.2s15.2 3.8 21 8.2c6.5 5 13.7 10.6 27.9 10.6v-11.5c-10.3 0-15.2-3.8-20.9-8.2-6.5-5-13.7-10.6-27.9-10.6s-21.5 5.6-27.9 10.6c-5.7 4.4-10.7 8.2-21 8.2s-15.2-3.8-20.9-8.2c-6.5-5-13.7-10.6-27.9-10.6s-21.5 5.6-27.9 10.6c-5.7 4.4-10.7 8.2-20.9 8.2s-15.2-3.8-20.9-8.2c-6.5-5-13.7-10.6-27.9-10.6v11.5c10.3 0 15.2 3.8 20.9 8.2 6.4 4.9 13.7 10.6 27.9 10.6zM228.2 209.3c-6.5-5-13.7-10.6-27.9-10.6s-21.5 5.6-27.9 10.6c-5.7 4.4-10.7 8.2-20.9 8.2-10.3 0-15.2-3.8-20.9-8.2-6.5-5-13.7-10.6-27.9-10.6s-21.5 5.6-28 10.6c-5.7 4.4-10.7 8.2-20.9 8.2s-15.2-3.8-20.9-8.2c-6.5-5-13.7-10.6-27.9-10.6v11.5c10.3 0 15.2 3.8 20.9 8.2 6.5 4.9 13.7 10.6 27.9 10.6s21.5-5.6 27.9-10.6c5.7-4.4 10.7-8.2 21-8.2s15.2 3.8 20.9 8.2c6.5 4.9 13.7 10.6 27.9 10.6s21.5-5.6 27.9-10.6c5.7-4.4 10.7-8.2 20.9-8.2 10.3 0 15.3 3.8 21 8.2 6.5 4.9 13.7 10.6 27.9 10.6v-11.5c-10.3 0-15.2-3.8-21-8.2z"/>
</svg>
