<svg viewBox="0 0 512 512" xmlns="http://www.w3.org/2000/svg"><path d="M399.32 98.55a23.502 23.502 0 0 0-17.177-6.69c-93.15 2.638-182.233 24.749-250.84 62.259a49.855 49.855 0 0 0-.736 86.932l118.166 68.224v90.717a19.385 19.385 0 0 0 38.77 0V331.66l19.8 11.433v22.957a19.385 19.385 0 0 0 38.77 0v-.574l52.734 30.444a5.1 5.1 0 0 0 7.65-4.417V115.43a23.361 23.361 0 0 0-7.137-16.882Zm-92.017 232.762-19.8-11.432v-21.624a1.117 1.117 0 0 1 1.671-.968l12.16 7.025a11.96 11.96 0 0 1 5.97 10.334Zm88.954 51.358-50.183-28.973v-21.626a1.112 1.112 0 0 1 1.67-.964l48.513 28.008Zm0-240.081a72.143 72.143 0 0 0-11.433-1.001c-25.298 0-45.115 12.391-45.115 28.21s19.817 28.206 45.115 28.206a72.253 72.253 0 0 0 11.433-.998v60.139c-20.607 1.42-36.148 12.128-36.148 25.557 0 13.384 15.44 24.06 36.148 25.536v39.097l-43.412-25.06a11.312 11.312 0 0 0-16.971 9.796v33.979a9.185 9.185 0 0 1-18.37 0v-51.403a22.197 22.197 0 0 0-11.07-19.17l-12.162-7.022a11.314 11.314 0 0 0-16.968 9.801v101.736a9.185 9.185 0 0 1-18.37 0V279.517a22.216 22.216 0 0 0-11.115-19.195l-97.004-54.692a9.062 9.062 0 0 1-4.52-7.83 8.928 8.928 0 0 1 4.567-7.876c66.625-36.426 153.602-56.735 245.395-57.465Zm0-20.33c-93.48.732-182.193 21.484-250.288 58.714a19.259 19.259 0 0 0-.21 33.516l97.005 54.694a11.96 11.96 0 0 1 5.97 10.334v17.978l-113.067-65.277a39.912 39.912 0 0 1-19.972-34.418 39.506 39.506 0 0 1 20.5-34.731c67.218-36.751 154.668-58.419 246.237-61.013a13.644 13.644 0 0 1 9.779 3.807 13.239 13.239 0 0 1 4.046 9.568Z" fill="#8aaead" class="fill-000000"></path><path d="M281.385 255.534c30.446 0 54.295-14.72 54.295-33.509s-23.85-33.506-54.295-33.506-54.294 14.717-54.294 33.506 23.849 33.509 54.294 33.509ZM196.72 207.868a5.1 5.1 0 0 0 7.212-7.211l-7.737-7.74a5.1 5.1 0 0 0-7.212 7.211ZM367.729 235.759a5.1 5.1 0 0 0 7.212-7.212l-7.737-7.74a5.1 5.1 0 0 0-7.212 7.212ZM329.977 261.448a5.098 5.098 0 0 0 0 7.212l7.737 7.74a5.1 5.1 0 0 0 7.212-7.212l-7.737-7.74a5.098 5.098 0 0 0-7.212 0ZM301.643 169.67a5.1 5.1 0 0 0 7.212-7.211l-7.74-7.74a5.1 5.1 0 0 0-7.212 7.211Z" fill="#8aaead" class="fill-000000"></path></svg>