<svg xmlns="http://www.w3.org/2000/svg" viewBox="0 0 250 250" fill="#8AADAC" class="iconservice">
  <defs/>
  <path d="M125 138.3c-9.1 0-16.5 7.4-16.5 16.5s7.4 16.5 16.5 16.5 16.5-7.4 16.5-16.5-7.3-16.4-16.4-16.5h-.1z"/>
  <circle cx="92.7" cy="110.5" r="12.9"/>
  <path d="M157.7 97.6c-7.1 0-12.9 5.8-12.9 12.9s5.8 12.9 12.9 12.9 12.9-5.8 12.9-12.9-5.8-12.9-12.9-12.9z"/>
  <path d="M125.4 1.2C56.8 1.2 1.2 56.8 1.2 125.4s55.6 124.2 124.2 124.2S249.6 194 249.6 125.4C249.6 56.9 194 1.3 125.4 1.2zm0 210.5c-47.6 0-86.2-38.6-86.2-86.2s38.6-86.2 86.2-86.2 86.2 38.6 86.2 86.2c0 47.5-38.6 86.1-86.2 86.2zm13.5 25.6v-14.8c53.5-7.5 90.9-57 83.4-110.5s-57-90.9-110.5-83.4-90.9 57-83.4 110.5c6.2 44.6 42.1 79.1 86.8 83.8v14.7C53.4 231.9 7.7 177.2 13.4 115.3S73.7 7.8 135.6 13.4s107.5 60.4 101.9 122.2c-4.8 52.9-45.9 95.2-98.6 101.7z"/>
</svg>
