<svg viewBox="0 0 32 32" xml:space="preserve" xmlns="http://www.w3.org/2000/svg" enable-background="new 0 0 32 32"><path d="M15 8h2c.6 0 1-.4 1-1s-.4-1-1-1h-2c-.6 0-1 .4-1 1s.4 1 1 1zM29.9 20.5c-.2-.3-.6-.5-.9-.5h-1.1c-.5-4.4-4.1-8.8-8.7-10.2-2.1-.7-4.4-.7-6.5 0-4.5 1.4-8.2 5.8-8.6 10.2H3c-.3 0-.7.2-.9.5s-.2.7 0 1C3.5 24.3 6.3 26 9.5 26h13.1c3.1 0 6-1.7 7.4-4.6 0-.3 0-.6-.1-.9zm-16.6-8.8c1.7-.5 3.6-.5 5.3 0 3.7 1.1 6.8 4.7 7.3 8.3H6.1c.5-3.6 3.5-7.1 7.2-8.3zM22.5 24h-13c-1.8 0-3.4-.7-4.6-2h22.2c-1.2 1.3-2.8 2-4.6 2z" fill="#8aaead" class="fill-000000"></path></svg>