<svg xmlns="http://www.w3.org/2000/svg" viewBox="0 0 250 250" fill="#8AADAC" class="iconservice">
  <defs/>
  <path d="M202 89.2c3 .3 5.4-.8 6.9-1.8.2-.1.5-.3.7-.5.6-.5 1-.8 1-.8.2-.1.4-.3.5-.5.6-.5 1.1-1.1 1.6-1.5 3.3-2.9 7.8-6.9 7.8-14.7 0-7.8-4.5-11.8-7.8-14.7-3-2.6-3.9-3.7-3.9-6.1 0-2.4 1-3.5 3.9-6.1 2.2-1.9 5.8-4.1 6.5-8.1.3-1.5-.5-5-6.3-5-5.1 0-7.1 2.2-8.7 3.8-3.1 3.2-7.1 7.5-7.1 15.3 0 7.8 4.5 11.8 7.8 14.7 3 2.6 3.9 3.7 3.9 6.1 0 2.4-1 3.5-3.9 6.1-2.4 1.7-7.8 4.4-8.9 8.3-.2 1.4.3 4.9 6 5.5zM172.6 89.2c3 .3 5.4-.8 6.9-1.8.2-.1.5-.3.7-.5.6-.5 1-.8 1-.8.2-.1.4-.3.5-.5.6-.5 1.1-1.1 1.6-1.5 3.3-2.9 7.8-6.9 7.8-14.7 0-7.8-4.5-11.8-7.8-14.7-3-2.6-3.9-3.7-3.9-6.1 0-2.4 1-3.5 3.9-6.1 2.2-1.9 5.8-4.1 6.5-8.1.3-1.5-.5-5-6.3-5-5.1 0-7.1 2.2-8.7 3.8-3.1 3.2-7.1 7.5-7.1 15.3 0 7.8 4.5 11.8 7.8 14.7 3 2.6 3.9 3.7 3.9 6.1 0 2.4-1 3.5-3.9 6.1-2.4 1.7-7.8 4.4-8.9 8.3-.2 1.4.2 4.9 6 5.5z"/>
  <path d="M245.1 209.7l-.2-.4c-4.2-6.7-40.7-65.6-46.8-71.9-8.8-9.3-45.9-16.6-58.6-18.8L112.6 57l-1.8-.8c-.1-.1-.9-.4-2.3-1 10-4.3 17.1-14.3 17.1-25.9 0-15.5-12.6-28.1-28.1-28.1C82 1.1 69.4 13.7 69.4 29.3c0 8.8 4 16.6 10.3 21.8C66.6 53.5 57.4 63.2 57 63.7l-.6.7-32 73.2-.1.2c-2 5.2-3.4 14.6 1.6 21.3H.9v10.4h164.5l44.2 59.4c4.4 6.4 13.1 14.9 22.5 14.9 2.8 0 5.6-.7 8.4-2.5 12.5-7.7 8.5-24 4.6-31.6zM97.5 11.5c9.8 0 17.7 8 17.7 17.7S107.3 47 97.5 47c-9.8 0-17.7-8-17.7-17.7s8-17.8 17.7-17.8zM51.8 159.1c4-3.9 6.7-8.4 7.3-9.3l13.6-26.2 21.5 35.5H51.8zM235 232.5c-6.9 4.3-16.8-9.5-16.9-9.6l-47.5-63.8h-64.2L72 102.3l-22 42.3c-2.7 4.5-9.1 12.1-12.9 10.4-6.7-2.9-3.5-12.4-3.1-13.5l31.1-71.4c2.2-2.1 10.6-9.3 20.5-9.3 8 0 15.7 2.6 19 3.9l27.5 63 2.8.5c19.9 3.4 50.2 10.6 55.5 16.2 4 4.2 29.9 45 45.3 70 .9 1.7 6.3 13.8-.7 18.1z"/>
</svg>
