<svg viewBox="0 0 50 50" xml:space="preserve" xmlns="http://www.w3.org/2000/svg"><path fill="none" d="M0 0h50v50H0z"></path><path d="M39 5.498a4.501 4.501 0 1 0 9 0 4.501 4.501 0 0 0-9 0zM20.46 37.309s5.094-6.355 6-7.563c.905-1.208.617-2.205-.612-3.128-1.19-.893-3.213-2.066-5.002-3.308-1.77-1.23-4.539-5-1.615-9 0 0 6.204-9.425 14.145-8.184C35.264 6.42 38 7.892 38 10.708s-2.312 8.229-2.312 8.229 5.653 3.288 6.828 4.234c2.46 1.979 1.776 3.766-1.516 2.375-5.344-2.255-8.656-3.969-9.057-5.179-.46-1.39-.047-4.267-.047-4.267l-5.103 3.528c2.075 1.47 3.903 2.777 4.433 3.193 1.41 1.107 4.766 4.038 1.232 8.383a286.568 286.568 0 0 1-7.167 8.42" fill="none" stroke="#8aaead" stroke-linecap="round" stroke-linejoin="round" stroke-miterlimit="10" stroke-width="2" class="stroke-000000"></path><path d="m2.299 27.932 37.496 20.424s4.727 2.111 7.243-1.309M30.747 18.138 10.588 6.333" fill="none" stroke="#8aaead" stroke-linecap="round" stroke-linejoin="round" stroke-miterlimit="10" stroke-width="2" class="stroke-000000"></path></svg>