<?xml version="1.0" standalone="no"?>
<!DOCTYPE svg PUBLIC "-//W3C//DTD SVG 20010904//EN"
 "http://www.w3.org/TR/2001/REC-SVG-20010904/DTD/svg10.dtd">
<svg version="1.0" xmlns="http://www.w3.org/2000/svg"
 width="512.000000pt" height="512.000000pt" viewBox="0 0 512.000000 512.000000"
 preserveAspectRatio="xMidYMid meet">

<g transform="translate(0.000000,512.000000) scale(0.100000,-0.100000)"
fill="#000000" stroke="none">
<path d="M0 2560 l0 -2560 2560 0 2560 0 0 2560 0 2560 -2560 0 -2560 0 0
-2560z m3045 1981 c384 -71 688 -230 942 -494 162 -169 271 -347 343 -566 80
-239 94 -380 87 -840 -4 -283 -8 -351 -25 -431 -36 -171 -110 -362 -171 -439
-17 -21 -51 -49 -76 -62 -33 -18 -48 -33 -57 -59 -26 -81 -91 -148 -169 -175
-23 -8 -75 -15 -116 -15 -61 0 -75 -3 -80 -18 -20 -51 -210 -738 -206 -744 2
-5 46 -8 98 -8 86 0 95 -2 109 -22 22 -31 20 -68 -6 -95 l-21 -23 -1219 0
c-1205 0 -1218 0 -1238 20 -24 24 -26 77 -3 102 13 15 32 18 110 18 82 0 93 2
93 18 0 9 -47 181 -104 382 l-103 365 -169 5 c-192 6 -219 14 -288 90 -55 61
-70 102 -70 195 -1 68 3 88 27 137 16 33 45 70 67 88 72 57 99 63 297 68 l182
4 -14 22 c-27 41 -46 111 -46 169 0 75 33 149 97 218 85 90 183 134 332 149
59 6 146 25 222 48 l125 39 20 59 c31 86 52 122 107 181 63 66 124 105 208
133 55 19 81 21 171 18 96 -4 113 -8 180 -40 127 -61 215 -157 257 -282 11
-32 23 -61 28 -65 22 -20 263 -83 349 -91 187 -18 325 -104 396 -247 35 -71
34 -188 -3 -259 l-27 -51 104 -6 c128 -7 189 -31 246 -95 22 -25 42 -56 45
-69 4 -13 11 -22 18 -20 19 6 84 138 115 237 58 180 63 239 58 684 -4 360 -6
410 -25 491 -79 347 -266 636 -547 848 -122 92 -335 196 -492 241 -212 61
-289 68 -734 64 l-394 -4 -100 -27 c-346 -96 -661 -307 -875 -587 -109 -143
-142 -226 -107 -274 12 -16 15 -16 47 6 19 13 64 62 99 108 90 118 269 292
381 372 183 130 369 211 559 243 132 23 770 17 876 -8 263 -62 483 -184 670
-372 155 -155 263 -328 330 -528 53 -160 65 -271 65 -606 0 -278 -1 -292 -20
-311 -27 -27 -81 -26 -106 1 -18 20 -19 45 -24 363 -5 313 -8 348 -28 424
-118 435 -477 783 -911 884 -71 16 -136 20 -371 25 -383 7 -498 -6 -679 -78
-216 -86 -439 -264 -627 -499 -103 -130 -161 -172 -243 -178 -54 -4 -60 -2
-95 28 -88 78 -106 196 -48 311 71 139 226 323 387 457 203 170 403 278 642
347 174 50 236 54 653 51 335 -4 399 -7 495 -25z m-510 -626 c25 -24 25 -24
25 -235 0 -197 -1 -211 -20 -230 -24 -24 -77 -26 -102 -3 -16 15 -18 35 -18
232 0 119 4 221 8 227 10 16 44 33 65 34 10 0 29 -11 42 -25z m-444 -53 c19
-16 26 -42 50 -193 42 -261 37 -299 -36 -299 -62 0 -66 9 -101 236 -21 135
-29 216 -24 230 17 44 72 57 111 26z m884 -7 c14 -13 25 -33 25 -44 0 -11 -14
-106 -30 -212 -21 -130 -36 -199 -47 -211 -35 -38 -123 -10 -123 40 0 28 58
395 65 413 7 18 41 37 68 38 10 1 29 -10 42 -24z m448 -177 c9 -11 17 -30 17
-42 0 -11 -27 -109 -60 -216 -70 -228 -83 -247 -154 -220 -25 9 -43 48 -37 80
7 41 115 387 125 399 27 34 78 34 109 -1z m-1777 14 c19 -12 31 -43 89 -235
37 -122 55 -196 51 -212 -12 -48 -69 -66 -115 -36 -11 7 -118 330 -136 410 -8
40 27 81 68 81 18 0 37 -4 43 -8z"/>
<path d="M2373 2922 c-73 -26 -128 -65 -168 -120 -118 -161 -77 -384 91 -495
55 -37 155 -60 219 -52 115 14 230 98 278 203 33 72 31 208 -4 282 -73 155
-261 237 -416 182z"/>
<path d="M1875 2499 c-51 -16 -131 -33 -185 -39 -120 -12 -157 -23 -217 -63
-54 -36 -113 -124 -113 -169 0 -35 33 -103 69 -141 55 -60 -6 -57 1054 -57
l974 0 41 30 c44 32 88 98 98 147 6 33 -20 101 -53 138 -63 71 -132 100 -271
114 -53 6 -140 24 -192 41 -52 16 -100 30 -107 30 -6 0 -14 -18 -18 -39 -4
-22 -22 -72 -41 -112 -117 -245 -416 -339 -669 -212 -108 55 -224 209 -241
319 -8 53 -9 53 -129 13z"/>
<path d="M913 1870 c-42 -25 -63 -68 -63 -127 0 -60 26 -104 73 -126 32 -16
151 -17 1476 -17 1203 0 1447 2 1475 14 94 39 112 168 35 242 l-30 29 -1467 3
c-1441 2 -1468 2 -1499 -18z"/>
<path d="M1390 1443 c1 -10 47 -180 103 -378 l102 -360 882 -3 882 -2 20 67
c48 163 191 675 191 683 0 6 -402 10 -1090 10 -1032 0 -1090 -1 -1090 -17z"/>
</g>
</svg>
