<svg xmlns="http://www.w3.org/2000/svg" id="Livello_1" x="0" y="0" version="1.1" viewBox="0 0 250 250" xml:space="preserve" fill="#8AADAC" class="iconservice">
  <defs/>
  <path d="M237.8 199.9c-13.3 0-20.2-5.3-26.2-9.9-5.4-4.1-10-7.7-19.7-7.7-9.6 0-14.2 3.6-19.6 7.7-6.1 4.7-12.9 9.9-26.2 9.9-13.3 0-20.2-5.3-26.2-9.9-5.4-4.1-10-7.7-19.7-7.7s-14.3 3.6-19.7 7.7c-6.1 4.7-12.9 9.9-26.2 9.9s-20.2-5.3-26.2-9.9c-5.4-4.1-10-7.7-19.7-7.7v-10.8c13.3 0 20.2 5.3 26.2 9.9 5.4 4.1 10 7.7 19.7 7.7s14.3-3.6 19.7-7.7c6.1-4.6 12.9-9.9 26.2-9.9s20.2 5.3 26.2 9.9c5.4 4.1 10 7.7 19.7 7.7 9.6 0 14.3-3.6 19.7-7.7 6.1-4.6 12.9-9.9 26.2-9.9s20.2 5.3 26.2 9.9c5.4 4.1 10 7.7 19.7 7.7l-.1 10.8zM241.5 231.8c-13.3 0-20.2-5.3-26.2-9.9-5.4-4.1-10-7.7-19.7-7.7s-14.3 3.6-19.7 7.7c-6.1 4.7-12.9 9.9-26.2 9.9-13.3 0-20.2-5.3-26.2-9.9-5.4-4.1-10-7.7-19.6-7.7s-14.3 3.6-19.7 7.7c-6.1 4.7-12.9 9.9-26.2 9.9s-20.2-5.3-26.2-9.9c-5.4-4.1-10-7.7-19.7-7.7v-10.8c13.3 0 20.2 5.3 26.2 9.9 5.4 4.1 10 7.7 19.7 7.7s14.2-3.6 19.6-7.7c6.1-4.7 12.9-9.9 26.2-9.9s20.2 5.3 26.2 9.9c5.4 4.1 10 7.7 19.7 7.7 9.6 0 14.3-3.6 19.7-7.7 6.1-4.7 12.9-9.9 26.2-9.9s20.2 5.3 26.2 9.9c5.4 4.1 10 7.7 19.7 7.7v10.8zM172.5 69.7h10.8v72.7h-10.8z" class="st0"/>
  <path d="M248.9 75.2H106.8l2.3-7c12.3-38 53.1-58.8 91.1-46.5 22.1 7.1 39.4 24.5 46.5 46.5l2.2 7zM122.1 64.5h111.6c-14.4-30.8-51.1-44.1-81.9-29.7-13.1 6.1-23.6 16.6-29.7 29.7z" class="st0"/>
  <path d="M155.6 70l-10.8-.5c1.9-37.2 29.6-50.2 30.8-50.8l4.5 9.8c-.9.4-23 11-24.5 41.5z" class="st0"/>
  <path d="M200.1 70c-1.5-30.8-24.3-41.4-24.5-41.5l4.5-9.8c1.2.5 28.9 13.6 30.8 50.8l-10.8.5zM54.4 106.9h10.8v58.6H54.4z" class="st0"/>
  <path d="M118.5 112.4H1.1l2.3-7C13.5 74.2 47 57.1 78.1 67.3c18 5.9 32.2 20 38.1 38.1l2.3 7zm-102-10.8h86.6C90.9 77.7 61.6 68.2 37.7 80.4c-9.1 4.7-16.6 12.1-21.2 21.2z" class="st0"/>
  <path d="M42.9 107.2l-10.8-.5C33.7 76 56.6 65.3 57.5 64.8l4.5 9.8c-.7.4-17.9 8.7-19.1 32.6z" class="st0"/>
  <path d="M76.7 107.2c-1.2-23.9-18.4-32.3-19.2-32.6l4.5-9.8c1 .5 23.9 11.2 25.4 41.8l-10.7.6z" class="st0"/>
</svg>
