<svg viewBox="0 0 50 50" xml:space="preserve" xmlns="http://www.w3.org/2000/svg"><path fill="none" d="M0 0h50v50H0z"></path><path d="M24 5.499a4.5 4.5 0 1 0 9 .004 4.5 4.5 0 0 0-9-.004zM19 29.584l-1.99 6.864s-2.164 5.253-3.549 8.063c-1.048 2.129-1.056 3.623.007 4.197 1.306.705 2.354.058 3.908-2.367 2.607-4.066 3.507-7.503 4.009-8.49l1.865-4.602" fill="none" stroke="#8aaead" stroke-linecap="round" stroke-linejoin="round" stroke-miterlimit="10" stroke-width="2" class="stroke-000000"></path><path d="m31.627 33.239-5.981-5.942s2.46-11.1 2.694-12.168-.022-1.563-1.126-1.977L23.4 12.076c-1.022-.312-1.884.356-2.047 1.467l-2.757 9.88c-.48 2.319-.519 5.036 1.562 6.94.027.035.051.07.086.106L28 37l-.889 8.73c-.2 2.435.253 3.136 1.566 3.234 1.767.134 2.14-2.438 2.268-3.084 0 0 1.024-8.193 1.216-9.324.19-1.13.303-2.462-.534-3.317z" fill="none" stroke="#8aaead" stroke-linecap="round" stroke-linejoin="round" stroke-miterlimit="10" stroke-width="2" class="stroke-000000"></path><path d="m27.916 18.917 4.529 3.169c.588.422 1.49.644 2.151.359 0 0 4.289-2.605 5.439-3.355 1.206-.79 2.466-1.828 2.001-2.699-.662-1.251-1.865-.671-3.036-.104l-4.597 2.162-6.411-4.959M39 20.013V49M39 12.299v3.526M18.583 23.519S17.8 25 15 25c-2.143 0-4-1.584-4-4 0-7 6.836-10.049 8-10 1.061.045 2.422.995 2.366 2.467" fill="none" stroke="#8aaead" stroke-linecap="round" stroke-linejoin="round" stroke-miterlimit="10" stroke-width="2" class="stroke-000000"></path></svg>