<svg viewBox="0 0 32 32" xml:space="preserve" xmlns="http://www.w3.org/2000/svg" enable-background="new 0 0 32 32"><circle cx="16" cy="16" r="13" fill="none" stroke="#8aaead" stroke-width="2" stroke-linecap="round" stroke-linejoin="round" stroke-miterlimit="10" class="stroke-000000"></circle><path d="M9.5 4.7C13.4 7 16 11.2 16 16M9.5 27.3c0-4.5 2.3-8.9 6.5-11.3M29 16c-3.9 2.2-8.8 2.4-13 0" fill="none" stroke="#8aaead" stroke-width="2" stroke-linecap="round" stroke-linejoin="round" stroke-miterlimit="10" class="stroke-000000"></path><path d="M13.3 3.3C18.8 4.6 23 10 23 16.5v1.2M6.4 24.7c-1.7-5.5.9-11.8 6.6-15 .3-.2.7-.4 1-.5M28.4 20c-3.9 4.2-10.7 5.1-16.3 1.8-.3-.2-.7-.4-1-.6" fill="none" stroke="#8aaead" stroke-width="2" stroke-linecap="round" stroke-linejoin="round" stroke-miterlimit="10" class="stroke-000000"></path></svg>