<svg xmlns="http://www.w3.org/2000/svg" viewBox="0 0 250 250" fill="#8AADAC" class="iconservice">
  <defs/>
  <path d="M.6 89.7l7.9 7.9c64.3-64.3 169-64.3 233.3 0l7.9-7.9C181.1 21 69.3 21 .6 89.7z"/>
  <path d="M28.6 122.4l7.9 7.9c49-48.9 128.3-48.9 177.2 0l7.9-7.9c-53.2-53.3-139.6-53.3-193 0z"/>
  <path d="M50.4 158.5l7.9 7.9c36.9-36.8 96.7-36.8 133.6 0l7.9-7.9c-41.2-41.3-108.1-41.3-149.4 0z"/>
  <path d="M125.2 164.4c-13.1 0-23.7 10.6-23.7 23.7s10.6 23.7 23.7 23.7 23.7-10.6 23.7-23.7c0-13-10.6-23.7-23.7-23.7zm12.5 23.7c0 6.9-5.6 12.5-12.5 12.5s-12.5-5.6-12.5-12.5 5.6-12.5 12.5-12.5 12.4 5.6 12.5 12.5z"/>
</svg>
